<?xml version="1.0" encoding="UTF-8" standalone="no"?>
<svg width="56px" height="57px" viewBox="0 0 56 57" version="1.1" xmlns="http://www.w3.org/2000/svg" xmlns:xlink="http://www.w3.org/1999/xlink">
    <!-- Generator: Sketch 44.1 (41455) - http://www.bohemiancoding.com/sketch -->
    <title>check circle 2 copy</title>
    <desc>Created with Sketch.</desc>
    <defs></defs>
    <g id="VOL-4-(pilot)" stroke="none" stroke-width="1" fill="none" fill-rule="evenodd">
        <g id="Suksess_godkjent-plan-Copy" transform="translate(-487.000000, -539.000000)" fill="#3DA063">
            <g id="check-circle-2-copy" transform="translate(487.000000, 539.000000)">
                <g id="Filled_Version">
                    <path d="M28,0 C12.5603333,0 0,12.6664904 0,28.231405 C0,43.7963196 12.5603333,56.4628099 28,56.4628099 C43.4373333,56.4628099 56,43.7963196 56,28.231405 C56,12.6664904 43.4373333,0 28,0 Z M40.4623333,20.858303 L22.9623333,37.3266226 C22.7383333,37.5360055 22.4513333,37.6418733 22.1666667,37.6418733 C21.8656667,37.6418733 21.5693333,37.526595 21.3406667,37.2983912 L15.5073333,31.4168485 C15.0523333,30.9580882 15.0523333,30.2123085 15.5073333,29.7535482 C15.9623333,29.2947879 16.702,29.2947879 17.157,29.7535482 L22.1923333,34.8304959 L38.8686667,19.1385399 C39.3376667,18.6962479 40.0773333,18.7174215 40.5183333,19.1926501 C40.9593333,19.6678788 40.9336667,20.4136584 40.4623333,20.858303 Z" id="Shape"></path>
                </g>
            </g>
        </g>
    </g>
</svg>