<?xml version="1.0" encoding="UTF-8"?>
<svg width="100px" height="100px" viewBox="0 0 100 100" version="1.1" xmlns="http://www.w3.org/2000/svg" xmlns:xlink="http://www.w3.org/1999/xlink">
    <!-- Generator: Sketch 42 (36781) - http://www.bohemiancoding.com/sketch -->
    <title>AG+SM</title>
    <desc>Created with Sketch.</desc>
    <defs>
        <path d="M4,31.94832 L4,67.78264 C10.7090614,85.365536 27.0076613,98.126496 46.4076957,99.508256 L53.4180622,99.508256 C78.9526694,97.689616 99.109984,76.158544 99.109984,49.864464 C99.109984,22.3776 77.0845775,0.09672 49.9128789,0.09672 C28.9862318,0.09672 11.1108016,13.31488 4,31.94832" id="path-1"></path>
    </defs>
    <g id="Landingssiden---nærmeste-leder" stroke="none" stroke-width="1" fill="none" fill-rule="evenodd">
        <g id="AG+SM">
            <path d="M49.990448,99.577344 C77.461056,99.577344 99.729744,77.306624 99.729744,49.836016 C99.729744,22.36744 77.461056,0.098752 49.990448,0.098752 C22.51984,0.098752 0.251152,22.36744 0.251152,49.836016 C0.251152,77.306624 22.51984,99.577344 49.990448,99.577344" id="Shape" fill="#BCD2D0" fill-rule="nonzero"></path>
            <mask id="mask-2" fill="white">
                <use xlink:href="#path-1"></use>
            </mask>
            <g id="SVGID_3_"></g>
            <g id="Jenta" mask="url(#mask-2)">
                <g transform="translate(51.000000, 22.000000)">
                    <path d="M40.8506646,18.556942 C42.2244948,24.1569358 40.9226271,35.799602 37.3637526,43.2858864 C31.8684316,39.4805947 12.5279547,40.3266997 6.61176195,43.0743602 C6.61176195,43.0743602 1.43264,34.5151797 1.96036527,21.6208016 C1.96036527,21.6208016 3.82266849,-0.0421026341 21.5450786,0.16942361 C39.2653081,0.380949854 40.8506646,18.556942 40.8506646,18.556942" id="Shape" stroke="none" fill="#2E3137" fill-rule="nonzero"></path>
                    <path d="M21.8918072,41.8531778 L15.2996027,41.8531778 C11.7429089,41.8531778 0.0544483902,49.217344 0.0544483902,56.0712304 L0.0544483902,92.0259623 L43.0990187,92.0259623 L43.729166,56.0712304 C43.729166,49.217344 32.0385249,41.8531778 28.4840117,41.8531778 L21.8918072,41.8531778 Z" id="Shape" stroke="none" fill="#005B7F" fill-rule="nonzero"></path>
                    <path d="M38.8836886,25.3890217 C38.8836886,36.3643988 31.2752859,45.2637659 21.8918072,45.2637659 C12.5061479,45.2637659 4.89992585,36.3643988 4.89992585,25.3890217 C4.89992585,14.4136445 12.5061479,5.51645815 21.8918072,5.51645815 C31.2752859,5.51645815 38.8836886,14.4136445 38.8836886,25.3890217" id="Shape" stroke="none" fill="#E8E7E1" fill-rule="nonzero"></path>
                    <path d="M5.33606244,30.6008539 L3.87718556,30.6008539 C3.50865015,30.6008539 3.20989659,30.3021003 3.20989659,29.9357456 L3.20989659,22.8398033 C3.20989659,22.4712679 3.50865015,22.174695 3.87718556,22.174695 L5.33606244,22.174695 C5.70459785,22.174695 6.00117073,22.4712679 6.00117073,22.8398033 L6.00117073,29.9357456 C6.00117073,30.3021003 5.70241717,30.6008539 5.33606244,30.6008539" id="Shape" stroke="none" fill="#E8E7E1" fill-rule="nonzero"></path>
                    <path d="M37.7824437,24.3379325 C39.1759001,24.7064679 38.7419442,23.6859083 38.7419442,22.174695 C38.7419442,11.1993179 31.1357221,2.30213151 21.7500628,2.30213151 C12.3644035,2.30213151 4.75818146,11.1993179 4.75818146,22.174695 C4.75818146,23.6226685 4.88902244,25.0313897 5.13980098,26.3899551 C5.13980098,26.3899551 9.87406361,22.1179973 11.0189221,20.3843543 C12.5454002,18.0662884 14.0217225,13.2208109 14.0217225,13.2208109 C14.5472671,13.2208109 28.6977186,8.83545756 37.7824437,24.3379325" id="Shape" stroke="none" fill="#2E3137" fill-rule="nonzero"></path>
                    <path d="M27.7382181,40.80645 C27.0425803,40.80645 22.0728039,42.9326158 22.0728039,42.9326158 C22.0728039,42.9326158 16.2220316,41.266574 15.7706302,41.1793467 C15.3192289,41.0899387 12.0612886,42.8170396 12.0612886,42.8170396 C12.8790447,44.0142345 21.3357331,59.1111024 21.3357331,59.1111024 L22.807694,59.1111024 C22.807694,59.1111024 31.2731052,44.1581596 32.0908613,42.958784 C32.0908613,42.958784 28.433856,40.80645 27.7382181,40.80645" id="Shape" stroke="none" fill="#E8E7E1" fill-rule="nonzero"></path>
                    <path d="M12.0634693,42.8170396 C10.1924433,43.4101854 8.05319337,45.1220215 8.05319337,45.1220215 C7.91144898,50.3120468 13.5877666,57.5889858 13.5877666,57.5889858 L17.0463298,53.1251278 L20.6880702,59.4447469 L23.0039555,59.4447469 L27.3827668,52.9986482 L30.5338537,58.247552 C36.7815102,48.7855688 36.2864952,45.5145444 36.2864952,45.5145444 C34.2431953,43.9270072 32.0908613,42.9609647 32.0908613,42.9609647 L22.0771653,58.701134 L12.0634693,42.8170396 Z" id="Shape" stroke="none" fill="#5690A2" fill-rule="nonzero"></path>
                    <path d="M13.585586,9.46785561 C13.901785,12.6385686 14.534183,20.4606782 28.1699934,19.9307723 C40.3229393,19.4575641 37.112974,35.0799766 37.112974,35.0799766 L40.3229393,25.0030408 L38.0702939,16.6335797 L17.2840242,5.87409015" id="Shape" stroke="none" fill="#2E3137" fill-rule="nonzero"></path>
                    <path d="M15.3095961,26.7283902 C14.0672937,26.8219707 13.7195863,24.9907122 14.0939083,23.7947707 C14.1643083,23.5681171 14.5755473,22.5370146 15.3035863,22.5370146 C16.0307668,22.5370146 16.3518595,23.1002146 16.3965034,23.1972293 C16.9313717,24.363122 16.669518,26.6253659 15.3095961,26.7283902" id="Fill-1" stroke="none" fill="#625D58" fill-rule="evenodd"></path>
                    <path d="M29.1744468,26.7283902 C30.4167493,26.8219707 30.7644566,24.9907122 30.3901346,23.7947707 C30.3197346,23.5681171 29.9084956,22.5370146 29.1804566,22.5370146 C28.4532761,22.5370146 28.1321834,23.1002146 28.0875395,23.1972293 C27.5526712,24.363122 27.8145249,26.6253659 29.1744468,26.7283902" id="Fill-3" stroke="none" fill="#625D58" fill-rule="evenodd"></path>
                    <path d="M22.5704976,28.4096624 C23.3131317,28.2954771 24.0377366,28.3229502 24.3768585,28.740199 C25.2053463,29.7584234 24.9675317,30.93376 23.5732683,31.8017405 C22.875278,32.2353015 21.887961,32.4130185 21.2826927,32.1451551" id="Stroke-5" stroke="#D0BEA3" stroke-width="0.506" stroke-linecap="round" fill="none"></path>
                    <path d="M27.9227005,35.2649912 C27.9227005,35.2649912 26.3532956,38.8596839 21.9867785,38.7257522 C17.6202615,38.5918205 15.9830322,35.2649912 15.9830322,35.2649912" id="Stroke-7" stroke="#D09D9C" stroke-width="1.013" stroke-linecap="round" fill="none"></path>
                </g>
            </g>
            <g id="Gutten" mask="url(#mask-2)">
                <g transform="translate(3.000000, 22.000000)">
                    <path d="M22.988189,42.9764069 L16.2760091,42.9764069 C12.6573074,42.9764069 0.630576762,50.6411109 0.630576762,57.6203535 L0.630576762,79.9090634 L45.5527749,94.6092122 L45.5527749,57.6203535 C45.5527749,50.6411109 33.2678834,43.1099383 29.6491817,43.1099383 L22.988189,42.9764069 Z" id="Shape" stroke="none" fill="#8FB73E" fill-rule="nonzero"></path>
                    <path d="M5.97489584,22.2790354 L4.70551086,22.2790354 C4.32939733,22.2790354 4.02450057,22.5839322 4.02450057,22.9600457 L4.02450057,30.2019002 C4.02450057,30.5757882 4.32939733,30.880685 4.70551086,30.880685 L6.19438629,30.880685 C6.24735728,30.880685 6.29887152,30.8746372 6.34828865,30.8632008 C8.34206788,39.492552 15.0833289,45.8428815 23.0927886,45.8428815 C32.671443,45.8428815 40.4362956,36.7605189 40.4362956,25.5594575 C40.4362956,14.3561707 32.671443,5.27603352 23.0927886,5.27603352 C14.4690444,5.27603352 7.3154872,12.6359879 5.97489584,22.2790354 Z" id="Combined-Shape" stroke="none" fill="#E8E7E1" fill-rule="nonzero"></path>
                    <path d="M29.302,42.3132008 C28.5252922,42.3132008 22.9859634,44.6833836 22.9859634,44.6833836 C22.9859634,44.6833836 16.3650301,42.8295223 15.8620617,42.7315992 C15.3590933,42.6314507 11.8294126,44.5520777 11.8294126,44.5520777 C12.7396518,45.8896175 15.3257105,52.1055055 22.9859634,52.1055055 C30.6506674,52.1055055 33.2411771,45.8896175 34.1514164,44.5520777 C34.1514164,44.5520777 30.0764823,42.3132008 29.302,42.3132008" id="Shape" stroke="none" fill="#E8E7E1" fill-rule="nonzero"></path>
                    <polyline id="Shape" stroke="none" fill="#FFFFFF" fill-rule="nonzero" points="34.0361726 44.4563802 11.9946754 83.5582779 45.5527749 85.0232282 36.4036296 45.7477931"></polyline>
                    <polygon id="Shape" stroke="none" fill="#FFFFFF" fill-rule="nonzero" points="11.6566918 44.4207822 21.2411528 74.9683116 18.0497516 75.0640091"></polygon>
                    <path d="M41.4800663,30.880685 L39.9911909,30.880685 C39.6150773,30.880685 39.3101806,30.5757882 39.3101806,30.2019002 L39.3101806,22.9600457 C39.3101806,22.5839322 39.6150773,22.2790354 39.9911909,22.2790354 L41.4800663,22.2790354 C41.8561798,22.2790354 42.158851,22.5839322 42.158851,22.9600457 L42.158851,30.2019002 C42.158851,30.5757882 41.8561798,30.880685 41.4800663,30.880685" id="Shape" stroke="none" fill="#E8E7E1" fill-rule="nonzero"></path>
                    <path d="M6.80640533,24.7048564 L6.80640533,23.1069303 C6.68845257,18.6625592 8.25522133,16.5994987 9.54602514,15.0305044 C9.54602514,15.0305044 8.76264076,18.4466834 9.3078941,17.7367413 C12.3969211,13.7263474 26.6959116,16.4726438 29.6625349,11.298301 C30.0341973,14.1447459 26.2908663,15.0060236 26.2908663,15.0060236 C29.2752937,15.5624046 31.8613524,14.3784259 32.5601669,12.9763459 C32.7916213,14.1202651 32.0839048,14.8791688 31.0468107,15.6625531 C34.7144739,14.9793173 34.774563,12.4934072 34.774563,12.4934072 C35.2953356,15.789408 39.0564709,14.5253105 39.0564709,19.9222057 L39.0564709,24.7048564 C39.0564709,24.949664 39.2545425,25.1477356 39.4993501,25.1477356 L39.9377783,25.1477356 C40.1825859,25.1477356 40.3806575,24.949664 40.3806575,24.7048564 L40.3806575,21.1529204 C40.607661,8.70779124 33.4793082,0.382106667 23.6669737,0.382106667 C14.3019695,0.382106667 5.44883581,8.68108495 5.45328686,19.668496 C5.45328686,19.6796236 5.44883581,24.7048564 5.44883581,24.7048564 C5.44883581,24.949664 5.64690743,25.1477356 5.89171505,25.1477356 L6.3635261,25.1477356 C6.49705752,25.1477356 6.61278476,25.0831954 6.69512914,24.9897234 C6.77747352,24.8584175 6.80640533,24.7849752 6.80640533,24.7048564 Z" id="Shape" stroke="none" fill="#2E3137" fill-rule="nonzero"></path>
                    <path d="M15.4789562,22.5316762 C15.5508038,22.3003619 15.970499,21.2480571 16.7135086,21.2480571 C17.4556419,21.2480571 17.7833371,21.8228381 17.828899,21.9218476 C18.3747657,23.1117143 18.1075276,25.4204762 16.7196419,25.525619 C15.4517943,25.6211238 15.0969371,23.7522095 15.4789562,22.5316762 Z" id="Fill-1" stroke="none" fill="#625D58" fill-rule="evenodd"></path>
                    <path d="M32.1102781,22.5316762 C32.0384305,22.3003619 31.6187352,21.2480571 30.8757257,21.2480571 C30.1335924,21.2480571 29.8058971,21.8228381 29.7603352,21.9218476 C29.2144686,23.1117143 29.4817067,25.4204762 30.8695924,25.525619 C32.13744,25.6211238 32.4922971,23.7522095 32.1102781,22.5316762 Z" id="Fill-3" stroke="none" fill="#625D58" fill-rule="evenodd"></path>
                    <path d="M24.1298476,27.2414629 C24.8877524,27.1249295 25.6272571,27.1529676 25.9733524,27.5787962 C26.8188762,28.6179581 26.5761714,29.8174629 25.1532381,30.7032914 C24.4408952,31.1457676 23.4332762,31.327139 22.8155619,31.0537676" id="Stroke-5" stroke="#D0BEA3" stroke-width="0.506" stroke-linecap="round" fill="none"></path>
                    <path d="M29.5921067,34.2377562 C29.5921067,34.2377562 27.9904305,37.9063657 23.5341257,37.76968 C19.077821,37.6329943 17.4069257,34.2377562 17.4069257,34.2377562" id="Stroke-7" stroke-opacity="0.493800951" stroke="#583931" stroke-width="1.013" stroke-linecap="round" fill="none"></path>
                </g>
            </g>
        </g>
    </g>
</svg>