<?xml version="1.0" encoding="utf-8"?>
<!-- Generator: Adobe Illustrator 19.2.1, SVG Export Plug-In . SVG Version: 6.00 Build 0)  -->
<svg version="1.1" id="Layer_1" xmlns="http://www.w3.org/2000/svg" xmlns:xlink="http://www.w3.org/1999/xlink" x="0px" y="0px"
	 viewBox="0 0 314.4 311.6" style="enable-background:new 0 0 314.4 311.6;" xml:space="preserve">
<style type="text/css">
	.st0{fill:#BCCFCF;}
	.st1{fill:none;stroke:#BCCFCF;stroke-width:6.2684;stroke-miterlimit:10;}
	.st2{clip-path:url(#SVGID_2_);}
	.st3{fill:#3E3A3C;}
	.st4{fill:#558192;}
	.st5{fill:#7C9FAF;}
	.st6{fill:#184D6C;}
	.st7{fill:#F2EFEE;}
	.st8{fill:#453E3E;}
	.st9{fill:#78ACCD;}
	.st10{fill:none;stroke:#D2C1A4;stroke-width:1.496;stroke-linecap:round;stroke-miterlimit:10;}
	.st11{fill:#DAD6D5;}
	.st12{fill:none;stroke:#CCB7A0;stroke-width:2.991;stroke-miterlimit:10;}
	.st13{fill:#FFFFFF;}
	.st14{fill:none;stroke:#BCCFCF;stroke-width:3.1342;stroke-miterlimit:10;}
	.st15{fill:#E57D61;}
	.st16{fill:#5F224E;}
	.st17{fill:none;stroke:#D19E9D;stroke-width:1.0127;stroke-miterlimit:10;}
	.st18{fill:none;stroke:#D2C1A4;stroke-width:0.5063;stroke-linecap:round;stroke-miterlimit:10;}
	.st19{fill:#CD1719;}
	.st20{fill:#C42229;}
	.st21{fill:#5B2052;}
	.st22{fill:#86497E;}
	.st23{fill:#EAEAE7;}
	.st24{fill:#759DAC;}
	.st25{fill:#EBEAE8;}
	.st26{fill:none;stroke:#CCB7A0;stroke-width:1.0101;stroke-miterlimit:10;}
	.st27{fill:#697686;}
	.st28{fill:#C11718;}
	.st29{fill:#BFC0C7;}
	.st30{fill:none;stroke:#697686;stroke-width:0.7985;stroke-miterlimit:10;}
	.st31{fill:#2EA359;}
	.st32{clip-path:url(#SVGID_4_);}
	.st33{fill:#9BA936;}
	.st34{fill:#ECEAE9;}
	.st35{fill:#F6BB71;}
	.st36{fill:none;stroke:#D19E9D;stroke-width:1.013;stroke-miterlimit:10;}
	.st37{fill:none;stroke:#D2C1A4;stroke-width:0.506;stroke-linecap:round;stroke-miterlimit:10;}
</style>
<g>
	<g>
		<path class="st0" d="M311.3,168.7c0-76-61.6-137.6-137.6-137.6S36.2,92.8,36.2,168.7s61.6,137.6,137.6,137.6
			S311.3,244.7,311.3,168.7"/>
		<circle class="st1" cx="173.8" cy="168.7" r="137.6"/>
	</g>
	<g>
		<g>
			<defs>
				<path id="SVGID_1_" d="M36.2,168.7c0,76,61.6,137.6,137.6,137.6s137.6-61.6,137.6-137.6S249.7,31.2,173.8,31.2
					C97.8,31.2,36.2,92.8,36.2,168.7"/>
			</defs>
			<clipPath id="SVGID_2_">
				<use xlink:href="#SVGID_1_"  style="overflow:visible;"/>
			</clipPath>
			<g class="st2">
				<g>
					<path class="st3" d="M232.8,151.8c-3.1,20.2-29.8,30.7-59.3,30.7c-29,0-56.3-16.1-58.8-30.7c-3.2-18.9-0.7-29.5,8.6-42.2
						c11.9-16.3,30-26.6,50.3-26.6c20.2,0,38.6,10.7,50.8,27.2C233.8,123,236,129.4,232.8,151.8"/>
					<path class="st4" d="M194.6,209.6h-20.8H153c-11.2,0-48.2,23.3-48.2,45V309c0,0,27.1,2.7,67.6,2.7c40.6,0,70.4,0,70.4,0v-57
						C242.8,232.9,205.8,209.6,194.6,209.6"/>
					<path class="st5" d="M190,255h31.8v17.6c0,0-12.3,13.6-15.9,13.6c-3.6,0-15.9-13.6-15.9-13.6L190,255L190,255z"/>
					<path class="st6" d="M193.4,209.7l-19.6,7.4L152,211l-8.8,3.7c2.8,4.1,18.2,13.8,26.1,13.8l-1.8-0.1v11.4l2.8,1.5L160,284.2
						l13.8,19.1l13.8-19.1l-10.2-42.9l2.8-1.5v-11.4l-1.9,0.1c7.9,0,23.7-9.7,26.5-13.8L193.4,209.7z"/>
					<path class="st7" d="M225.7,174h2.7c2.4,0,4.4-2,4.4-4.4v-17.8c0-2.4-2-4.4-4.4-4.4s-4.4,2-4.4,4.4v20.5
						C224,173.3,224.7,174,225.7,174"/>
					<path class="st7" d="M227.5,157.6c0,34.7-24,62.8-53.7,62.8s-53.7-28.1-53.7-62.8s24-62.8,53.7-62.8
						C203.4,94.7,227.5,122.9,227.5,157.6"/>
					<path class="st8" d="M224,154.2c4.4,1.2,3-2.1,3-6.8c0-34.7-24-62.8-53.7-62.8s-53.7,28.1-53.7,62.8c0,4.6,0.4,9,1.2,13.3
						c0,0,15-13.5,18.6-19c4.8-7.3,9.5-22.6,9.5-22.6C150.5,119.1,171.4,140.3,224,154.2"/>
					<path class="st9" d="M149.6,150.4c-3.9-0.3-5,5.6-3.8,9.4c0.3,0.9,0.7,1.7,1.1,2.4c0.6-0.1,1.2-0.2,2.3-0.2s3,0.1,4.2,0.6
						c0.2-0.3,0.6-4.3,0.4-6.2C153.6,153.3,152.3,150.6,149.6,150.4"/>
					<path class="st9" d="M197.2,150.4c3.9-0.3,5,5.6,3.8,9.4c-0.3,0.9-0.7,1.7-1.1,2.4c-0.6-0.1-1.2-0.2-2.3-0.2s-3,0.1-4.2,0.6
						c-0.2-0.3-0.6-4.3-0.4-6.2C193.2,153.3,194.6,150.6,197.2,150.4"/>
					<path class="st7" d="M177.8,164.7c2.3-0.4,4.6-0.3,5.6,1c2.6,3.2,1.8,6.9-2.5,9.7c-2.2,1.4-5.3,1.9-7.1,1.1"/>
					<path class="st10" d="M177.8,164.7c2.3-0.4,4.6-0.3,5.6,1c2.6,3.2,1.8,6.9-2.5,9.7c-2.2,1.4-5.3,1.9-7.1,1.1"/>
					<path class="st11" d="M194.5,186.6c0,0-5.3-5.4-20.9-5.4s-22.2,6-22.2,6h-24.9c9,19.7,26.8,33.2,47.2,33.2
						c20.8,0,38.8-13.5,47.7-33.8H194.5z"/>
					<path class="st12" d="M157.9,191.2c0,0,5.7,6.8,15.6,6.8s15.8-6.8,15.8-6.8"/>
				</g>
				<path class="st7" d="M120.7,180H118c-2.4,0-4.4-2-4.4-4.4v-17.8c0-2.4,2-4.4,4.4-4.4s4.4,2,4.4,4.4v20.5
					C122.4,179.3,121.6,180,120.7,180"/>
			</g>
		</g>
	</g>
</g>
<path class="st13" d="M89.2,221.6c0,24.2-19.6,43.8-43.8,43.8S1.6,245.8,1.6,221.6s19.6-43.8,43.8-43.8S89.2,197.4,89.2,221.6"/>
<circle class="st14" cx="45.4" cy="221.6" r="43.8"/>
<path class="st13" d="M89.2,121c0,24.2-19.6,43.8-43.8,43.8S1.6,145.1,1.6,121c0-24.2,19.6-43.8,43.8-43.8S89.2,96.8,89.2,121"/>
<circle class="st14" cx="45.4" cy="121" r="43.8"/>
<path class="st15" d="M68.4,111.2L68.4,111.2c0-14-10.1-25.4-22.6-25.4s-22.6,11.4-22.6,25.4l0,0c0,12-6.2,18.8-6.2,18.8
	s6.1,7.5,28.7,7.5l0,0l0,0c22.6,0,28.7-7.5,28.7-7.5S68.4,123.2,68.4,111.2"/>
<path class="st16" d="M47.5,126.8c12.2,0,21.8,9.1,21.8,19.9v9.3c0,0.4-10,7.3-23.3,7.3c-12.3,0-19.2-3.9-23.5-6.6
	c-0.6-2.7-1.1-6.8-1.1-10C21.4,135.8,35.3,126.8,47.5,126.8"/>
<path class="st7" d="M65.7,108.3c-0.1-0.7-0.7-1.2-1.5-1.2c-0.2,0-0.4,0-0.5,0.1c0,0,0,0-0.1,0c-5.5-7.5-16.3-0.6-24.5-7.7
	c-1.1-1.1-1.6-1.9-1.7-1.9c0,0-8,6.9-9.3,9.5c0,0-0.1,0.2-0.2,0.1c-0.2-0.1-0.3-0.1-0.5-0.1c-0.7,0-1.3,0.5-1.5,1.2
	c0,0.1-0.1,0.2-0.1,0.4v6c0,0.8,0.7,1.5,1.5,1.5c0.3,0,0.6-0.1,0.9-0.3c1.2,5.6,4.3,10.2,8.4,13c-1.1,0.4-2.9,1.3-2.9,1.3
	c0.9,1.4,4.2,8.6,12,8.6c7.9,0,12-7.4,12.8-9.2c0,0-1.2-0.8-2.9-1.3c3.7-2.9,6.5-7.3,7.6-12.4c0.2,0.2,0.5,0.3,0.9,0.3
	c0.8,0,1.5-0.7,1.5-1.5v-6C65.8,108.5,65.8,108.4,65.7,108.3"/>
<path class="st16" d="M57.2,147.8h-1.3c-0.2,0-0.3-0.1-0.3-0.3l0,0c0-0.2,0.1-0.3,0.3-0.3h1.3c0.2,0,0.3,0.1,0.3,0.3l0,0
	C57.5,147.6,57.4,147.8,57.2,147.8"/>
<path class="st9" d="M38.9,113.2c-1.3,0.1-1.7-1.9-1.3-3.2c0.1-0.2,0.5-1.4,1.3-1.4s1.1,0.6,1.2,0.7C40.7,110.6,40.4,113,38.9,113.2
	"/>
<path class="st9" d="M53.8,113.2c1.3,0.1,1.7-1.9,1.3-3.2c-0.1-0.2-0.5-1.4-1.3-1.4s-1.1,0.6-1.2,0.7
	C52.1,110.6,52.4,113,53.8,113.2"/>
<path class="st17" d="M41,122.3c0,0,2,2.3,5.4,2.3s5.5-2.3,5.5-2.3"/>
<path class="st7" d="M46.7,114.7c0.8-0.1,1.6-0.1,1.9,0.4c0.9,1.1,0.6,2.4-0.9,3.3c-0.7,0.5-1.8,0.7-2.5,0.4"/>
<path class="st18" d="M46.7,114.7c0.8-0.1,1.6-0.1,1.9,0.4c0.9,1.1,0.6,2.4-0.9,3.3c-0.7,0.5-1.8,0.7-2.5,0.4"/>
<polygon class="st7" points="44.3,143.4 48.2,143.4 55.3,134.5 36.8,134.5 "/>
<g>
	<path class="st19" d="M64.6,154.5h-13c-0.7,0-1.4-0.6-1.4-1.4v-6.7c0-0.7,0.6-1.4,1.4-1.4h12.9c0.7,0,1.4,0.6,1.4,1.4v6.7
		C65.9,153.9,65.3,154.5,64.6,154.5z"/>
	<g>
		<g>
			<path class="st13" d="M61.6,150c0,1.9-1.5,3.4-3.4,3.4s-3.4-1.5-3.4-3.4s1.5-3.4,3.4-3.4S61.6,148.1,61.6,150"/>
		</g>
		<polygon class="st13" points="53.8,151.5 53.1,151.5 53.8,149.8 54.5,149.8 		"/>
		<polygon class="st13" points="62.2,151.5 61.8,151.5 62.5,149.8 62.9,149.8 		"/>
		<polygon class="st13" points="63.4,151.5 63.2,151.5 63.9,149.8 64.1,149.8 		"/>
		<path class="st20" d="M55.6,151.5h0.5l0,0v-1.6l0,0h-0.5c0,0-0.1,0-0.1,0.1l-0.2,0.5v0.1h0.2l0,0L55.6,151.5L55.6,151.5"/>
		<path class="st20" d="M56.8,151.5h0.5h0.1v-1.6c0,0,0,0-0.1,0h-0.8c0,0-0.1,0-0.1,0.1l-0.2,0.5l-0.1,0.1h0.4
			c0.1,0,0.2,0.1,0.2,0.2L56.8,151.5C56.7,151.5,56.7,151.5,56.8,151.5"/>
		<path class="st20" d="M59.1,149.8h-0.5l0,0v1.6l0,0h0.5c0,0,0.1,0,0.1-0.1l0.2-0.5v-0.1h-0.1l0,0L59.1,149.8
			C59.2,149.8,59.1,149.8,59.1,149.8"/>
		<path class="st20" d="M56.9,151.5h0.3c0,0,0.1,0,0.1-0.1l0.2-0.5v-0.1h-0.1L56.9,151.5z"/>
		<path class="st20" d="M60.5,149.8h0.6c0,0,0.1,0,0,0.1l-0.7,1.7l0,0h-0.6L60.5,149.8L60.5,149.8"/>
		<path class="st20" d="M59.7,149.8h-0.9c-0.1,0,0.3,0.1,0.3,0.1l0.6,1.6c0,0,0,0.1,0.1,0.1h0.5L59.7,149.8
			C59.8,149.8,59.8,149.8,59.7,149.8"/>
		<path class="st20" d="M58,149.8c0.3,0,0.5,0.2,0.5,0.6c0,0.4,0,0.4,0,0.4s0-0.3-0.3-0.3s-0.3,0.1-0.3,0.3c0,0.1,0.1,0.2,0.2,0.2
			h0.5l-0.3,0.6c0,0,0,0-0.1,0H58c-0.2,0-0.8-0.3-0.8-0.8C57.3,150.1,57.7,149.8,58,149.8"/>
	</g>
	<path class="st21" d="M58.9,146.1h-1.4c-0.1,0-0.2-0.1-0.2-0.2v-0.2c0-0.1,0.1-0.2,0.2-0.2h1.4c0.1,0,0.2,0.1,0.2,0.2v0.2
		C59.2,146,59.1,146.1,58.9,146.1z"/>
	<rect x="57.8" y="143.3" class="st22" width="0.8" height="2.5"/>
</g>
<g>
	<path class="st13" d="M161.3,45.4c0,24.2-19.6,43.8-43.8,43.8S73.7,69.6,73.7,45.4S93.3,1.6,117.5,1.6S161.3,21.2,161.3,45.4"/>
	<circle class="st14" cx="117.5" cy="45.4" r="43.8"/>
	<path class="st3" d="M140,35.4c0,11.9,0.1,26.2-22.5,26.2s0.6-26.2,0.6-26.2H140z"/>
	<path class="st3" d="M95,35.4c0,11.9-0.1,26.2,22.5,26.2s-0.6-26.2-0.6-26.2H95z"/>
	<path class="st3" d="M95,35.4c0,14,10.1,25.3,22.5,25.3S140,49.4,140,35.4s-10.1-25.3-22.5-25.3C105.1,10.1,95,21.5,95,35.4"/>
	<path class="st0" d="M110.4,53h7.1h7.1c3.8,0,16.3,7.9,16.3,15.2v12.4c0,0-9.9,7-23.7,7s-23.1-7-23.1-7V68.3
		C94.1,60.9,106.6,53,110.4,53"/>
	<path class="st13" d="M128.3,64.2c3.2-5.6,1.5-9.1,0.4-10l-1.4-0.6c2,2.2,2.4,6,0,10L128.3,64.2z"/>
	<path class="st13" d="M130.3,64.3c1.1,0.8,1.9,1.8,2.4,3.1c0.3,0.6,0.4,1.2,0.2,1.9c-0.7,2.8-1.4,5.5-2.1,8.3
		c-0.4,1.5-1.4,2.4-2.9,2.8c-0.2,0.1-0.4,0.1-0.5,0.3c-0.5,0.6-1.3,0.7-2,0.4c-0.7-0.4-1-1.1-0.8-1.9c0.2-0.7,0.9-1.2,1.7-1.2
		c0.6,0,1,0.3,1.4,0.8c0.9-0.3,1.4-0.9,1.7-1.8c0.7-2.6,1.3-5.2,2-7.8c0.1-0.5,0.1-0.9-0.1-1.4c-0.4-0.8-0.9-1.4-1.5-1.9
		c-2.1-1.9-5.3-2-7.5-0.2c-0.3,0.3-0.5,0.6-0.6,1c-0.2,0.9-0.4,1.8-0.7,2.7c-0.4,1.7-0.9,3.5-1.3,5.2c-0.2,0.9,0,1.6,0.6,2.2
		c0.5-0.3,1-0.3,1.5-0.2c0.8,0.3,1.2,1.1,1,1.8c-0.2,0.8-0.8,1.4-1.6,1.3c-0.8,0-1.4-0.6-1.6-1.4c0-0.1-0.1-0.2-0.2-0.3
		c-1.2-1.1-1.7-2.5-1.3-4.1c0.6-2.6,1.3-5.1,1.9-7.7c0.2-0.9,0.7-1.6,1.4-2.1c1.4-1,3.1-1.7,4.8-1.5C127.7,63,128.6,63.3,130.3,64.3
		"/>
	<polygon class="st13" points="106.3,66.4 107.2,66.4 107.2,53.9 106.3,54.4 	"/>
	<path class="st13" d="M102.3,68.6c0,2.4,2,4.4,4.4,4.4s4.4-2,4.4-4.4s-2-4.4-4.4-4.4S102.3,66.2,102.3,68.6"/>
	<path class="st23" d="M103.4,68.6c0,1.8,1.5,3.3,3.3,3.3s3.3-1.5,3.3-3.3s-1.5-3.3-3.3-3.3C104.9,65.3,103.4,66.8,103.4,68.6"/>
	<path class="st24" d="M114,53.7c0.4,0,3.5,1.3,3.5,1.3s3.6-1,3.9-1.1s2.3,1,2.3,1C123.2,55.6,118,65,118,65h-1c0,0-5.2-9.2-5.7-10
		C111.3,55,113.5,53.7,114,53.7"/>
	<path class="st25" d="M108.7,21c0,0-8.4,7.2-9.7,10c0,0-0.1,0.2-0.2,0.1C98.5,31,98.3,31,98.1,31c-0.9,0-1.6,0.7-1.6,1.6v6.3
		c0,0.9,0.7,1.6,1.6,1.6c0.3,0,0.7-0.1,0.9-0.3c2.1,9.6,9.5,16.7,18.4,16.7s16.3-7.1,18.4-16.7c0.3,0.2,0.6,0.3,0.9,0.3
		c0.9,0,1.6-0.7,1.6-1.6v-6.3c0-0.9-0.7-1.6-1.6-1.6c-0.2,0-0.4,0-0.6,0.1C130.1,22.5,117.5,31.6,108.7,21"/>
	<path class="st25" d="M114.9,54.9c0.3,0,2.5,1,2.5,1s2.6-0.7,2.8-0.8c0.2,0,1.7,0.7,1.7,0.7c-0.4,0.5-4.1,7.3-4.1,7.3h-0.7
		c0,0-3.8-6.7-4.1-7.2C113,55.8,114.6,54.9,114.9,54.9"/>
	<path class="st3" d="M103.7,35.5c0,3.4,2.8,6.2,6.2,6.2c3.2,0,5.8-2.4,6.1-5.5h2.9c0.4,3.1,3,5.5,6.1,5.5c3.4,0,6.2-2.8,6.2-6.2
		s-2.8-6.2-6.2-6.2c-3.2,0-5.8,2.4-6.1,5.5H116c-0.4-3.1-3-5.5-6.1-5.5C106.5,29.3,103.7,32.1,103.7,35.5 M120.4,35.5
		c0-2.6,2.1-4.7,4.7-4.7s4.7,2.1,4.7,4.7c0,2.6-2.1,4.7-4.7,4.7C122.5,40.2,120.4,38.1,120.4,35.5 M105.2,35.5
		c0-2.6,2.1-4.7,4.7-4.7s4.7,2.1,4.7,4.7c0,2.6-2.1,4.7-4.7,4.7C107.3,40.2,105.2,38.1,105.2,35.5"/>
	<path class="st26" d="M112.1,46.2c0,0,2,2.3,5.4,2.3s5.5-2.3,5.5-2.3"/>
	<path class="st7" d="M118.5,38.5c0.8-0.1,1.6-0.1,1.9,0.4c0.9,1.1,0.6,2.4-0.9,3.3c-0.7,0.5-1.8,0.7-2.5,0.4"/>
	<path class="st18" d="M118.5,38.5c0.8-0.1,1.6-0.1,1.9,0.4c0.9,1.1,0.6,2.4-0.9,3.3c-0.7,0.5-1.8,0.7-2.5,0.4"/>
</g>
<g>
	<path class="st27" d="M290.9,179.4h-34.6c-3.3,0-5.9-2.7-5.9-5.9v-71.6c0-3.3,2.7-5.9,5.9-5.9h34.6c3.3,0,5.9,2.7,5.9,5.9v71.6
		C296.9,176.7,294.2,179.4,290.9,179.4"/>
	<path class="st13" d="M278.8,172.9c0,2-1.6,3.6-3.6,3.6s-3.6-1.6-3.6-3.6s1.6-3.6,3.6-3.6C277.2,169.3,278.8,170.9,278.8,172.9"/>
	<rect x="258.8" y="108.8" class="st13" width="29.6" height="5.4"/>
	<polygon class="st28" points="254.1,115.9 254.1,115.9 254.1,108.8 	"/>
	<path class="st29" d="M291.7,106.4c-0.3-0.1-0.6-0.2-1-0.2h-34.1c-1.4,0-2.5,1.1-2.5,2.6v7l39.2-0.1v-7
		C293.3,107.7,292.7,106.8,291.7,106.4 M262.3,112.8c-0.7,0-1.3-0.6-1.3-1.3c0-0.7,0.6-1.3,1.3-1.3c0.7,0,1.3,0.6,1.3,1.3
		C263.6,112.2,263,112.8,262.3,112.8 M285.1,112.8c-0.7,0-1.3-0.6-1.3-1.3c0-0.7,0.6-1.3,1.3-1.3c0.7,0,1.3,0.6,1.3,1.3
		C286.4,112.2,285.8,112.8,285.1,112.8"/>
	<path class="st13" d="M254.1,115.9v8.1v39.9c0,1.4,1.1,2.5,2.6,2.5h34.1c1.4,0,2.5-1.1,2.5-2.6v-35.1v-12.9L254.1,115.9z"/>
	<line class="st30" x1="267.2" y1="115.9" x2="267.3" y2="167.3"/>
	<line class="st30" x1="280" y1="115.8" x2="280.1" y2="167.3"/>
	<line class="st30" x1="254.1" y1="124.5" x2="293.4" y2="124.4"/>
	<line class="st30" x1="254.1" y1="133" x2="293.4" y2="132.9"/>
	<line class="st30" x1="254.1" y1="141.3" x2="293.4" y2="141.2"/>
	<line class="st30" x1="254.1" y1="149.8" x2="293.4" y2="149.8"/>
	<line class="st30" x1="254.1" y1="158.4" x2="293.4" y2="158.3"/>
	<path class="st31" d="M259.8,148c-0.3,0-0.5-0.1-0.7-0.3l-2.2-2.6c-0.3-0.4-0.3-1,0.1-1.3s1-0.3,1.3,0.1l1.5,1.7l4.2-5.8
		c0.3-0.4,0.9-0.5,1.3-0.2s0.5,0.9,0.2,1.3l-4.9,6.7C260.4,147.8,260.2,148,259.8,148C259.9,148,259.8,148,259.8,148"/>
</g>
<g>
	<g>
		<defs>
			<path id="SVGID_3_" d="M89.2,221.6c0,24.2-19.6,43.8-43.8,43.8S1.6,245.8,1.6,221.6s19.6-43.8,43.8-43.8S89.2,197.4,89.2,221.6"
				/>
		</defs>
		<clipPath id="SVGID_4_">
			<use xlink:href="#SVGID_3_"  style="overflow:visible;"/>
		</clipPath>
		<g class="st32">
			<path class="st33" d="M52.6,234.4l-7-0.1h-7.1c-3.8,0-16.5,8.1-16.5,15.4V269h47.3v-19.3C69.4,242.3,56.5,234.4,52.6,234.4"/>
			<path class="st34" d="M52.3,233.6c-0.8,0-6.7,2.5-6.7,2.5s-7-2-7.5-2.1s-4.2,1.9-4.2,1.9c1,1.4,3.7,8,11.8,8s10.8-6.6,11.8-8
				C57.4,235.9,53.1,233.6,52.3,233.6"/>
			<polyline class="st13" points="57.2,235.8 37.5,269 59.7,269 59.7,237.1 			"/>
			<polyline class="st13" points="33.9,235.9 43.8,268 40.4,268.1 			"/>
			<path class="st34" d="M65.1,221.5h-1.6c-0.4,0-0.7-0.3-0.7-0.7v-7.6c0-0.4,0.3-0.7,0.7-0.7h1.6c0.4,0,0.7,0.3,0.7,0.7v7.6
				C65.8,221.2,65.5,221.5,65.1,221.5"/>
			<path class="st34" d="M27.9,221.5h-1.6c-0.4,0-0.7-0.3-0.7-0.7v-7.6c0-0.4,0.3-0.7,0.7-0.7h1.6c0.4,0,0.7,0.3,0.7,0.7v7.6
				C28.6,221.2,28.3,221.5,27.9,221.5"/>
			<path class="st34" d="M64,215.9c0,11.8-8.2,21.4-18.3,21.4s-18.3-9.6-18.3-21.4c0-11.8,8.2-21.4,18.3-21.4S64,204.1,64,215.9"/>
			<path class="st35" d="M28.5,215.2c0-0.1,0.1-0.1,0.1-0.2v-1.7c-0.1-4.7,1.5-6.9,2.9-8.5c0,0-0.8,3.6-0.3,2.9
				c3.3-4.2,18.3-1.3,21.4-6.8c0.4,3-3.6,3.9-3.6,3.9c3.1,0.6,5.9-0.7,6.6-2.1c0.2,1.2-0.5,2-1.6,2.8c3.9-0.7,3.9-3.3,3.9-3.3
				c0.5,3.5,4.5,2.1,4.5,7.8v5c0,0.3,0.2,0.5,0.5,0.5h0.5c0.3,0,0.5-0.2,0.5-0.5v-3.7c0.2-13.1-7.3-21.9-17.6-21.9
				c-9.9,0-19.2,8.7-19.2,20.3l0,0v5.3c0,0.3,0.2,0.5,0.5,0.5h0.5C28.2,215.5,28.4,215.4,28.5,215.2"/>
			<path class="st9" d="M38.1,217.8c-1.4,0.1-1.7-1.9-1.3-3.3c0.1-0.3,0.5-1.4,1.3-1.4s1.2,0.6,1.2,0.7
				C39.9,215.2,39.6,217.7,38.1,217.8"/>
			<path class="st9" d="M53.3,217.8c1.4,0.1,1.7-1.9,1.3-3.3c-0.1-0.3-0.5-1.4-1.3-1.4s-1.2,0.6-1.2,0.7
				C51.6,215.2,51.9,217.7,53.3,217.8"/>
			<path class="st36" d="M40.3,227.1c0,0,2,2.4,5.5,2.4s5.6-2.4,5.6-2.4"/>
			<path class="st34" d="M46.1,219.3c0.8-0.1,1.6-0.1,2,0.4c0.9,1.1,0.6,2.4-0.9,3.4c-0.8,0.5-1.9,0.7-2.5,0.4"/>
			<path class="st37" d="M46.1,219.3c0.8-0.1,1.6-0.1,2,0.4c0.9,1.1,0.6,2.4-0.9,3.4c-0.8,0.5-1.9,0.7-2.5,0.4"/>
		</g>
	</g>
</g>
</svg>
