<?xml version="1.0" encoding="UTF-8" standalone="no"?>
<svg width="150px" height="149px" viewBox="0 0 150 149" version="1.1" xmlns="http://www.w3.org/2000/svg" xmlns:xlink="http://www.w3.org/1999/xlink">
    <!-- Generator: Sketch 47 (45396) - http://www.bohemiancoding.com/sketch -->
    <title>Feilmelding_leder</title>
    <desc>Created with Sketch.</desc>
    <defs>
        <ellipse id="path-1" cx="74.9896278" cy="74.3506494" rx="74.9896278" ry="74.3506494"></ellipse>
    </defs>
    <g id="Feilmeldinger" stroke="none" stroke-width="1" fill="none" fill-rule="evenodd">
        <g id="Kan-ikke-sende-varsler" transform="translate(-436.000000, -448.000000)">
            <g id="Feilmelding_leder" transform="translate(436.000000, 448.000000)">
                <g id="Group-11" transform="translate(0.000000, 0.187590)"></g>
                <mask id="mask-2" fill="white">
                    <use xlink:href="#path-1"></use>
                </mask>
                <use id="Mask" fill="#E2AFA7" xlink:href="#path-1"></use>
                <g id="Group-101" mask="url(#mask-2)">
                    <g transform="translate(-15.789474, 35.294118)">
                        <g id="Group-71" stroke-width="1" fill="none" transform="translate(56.250000, 6.862745)">
                            <g id="Page-1" transform="translate(1.067196, 13.687338)" fill="#CCC8C4">
                                <path d="M73.3961121,46.0883416 C73.3961121,48.2927809 71.5901957,50.077848 69.3618534,50.077848 C69.3618534,50.077848 40.8620509,52.1014736 26.6798915,52.1014736 C21.473506,52.1014736 11.1962187,50.077848 11.1962187,50.077848 C8.96787644,50.077848 7.16196002,48.2927809 7.16196002,46.0883416 C7.16196002,43.8875489 8.96787644,42.1006585 11.1962187,42.1006585 L69.3618534,42.1006585 C71.5901957,42.1006585 73.3961121,43.8875489 73.3961121,46.0883416 Z" id="Fill-1"></path>
                                <path d="M78.4039792,37.3347664 L78.4039792,37.3347664 C78.4039792,39.535559 76.5999074,41.3224495 74.3697205,41.3224495 L16.2096197,41.3224495 C13.9775882,41.3224495 12.1753611,39.535559 12.1753611,37.3347664 C12.1753611,35.130327 13.9775882,33.34526 16.2096197,33.34526 L74.3697205,33.34526 C76.5999074,33.34526 78.4039792,35.130327 78.4039792,37.3347664" id="Fill-3"></path>
                                <path d="M82.0501226,28.5742624 L82.0501226,28.5742624 C82.0501226,30.7768784 80.2405168,32.5637689 78.0140193,32.5637689 L19.8483845,32.5637689 C17.6200423,32.5637689 15.8159705,30.7768784 15.8159705,28.5742624 C15.8159705,26.3716465 17.6200423,24.584756 19.8483845,24.584756 L78.0140193,24.584756 C80.2405168,24.584756 82.0501226,26.3716465 82.0501226,28.5742624" id="Fill-5"></path>
                                <path d="M77.2835362,19.8152172 L77.2835362,19.8152172 C77.2835362,22.0178332 75.4757752,23.8047236 73.247433,23.8047236 L31.228056,23.8047236 C28.9978691,23.8047236 27.1937973,22.0178332 27.1937973,19.8152172 C27.1937973,17.6107779 28.9978691,15.8257108 31.228056,15.8257108 L73.247433,15.8257108 C75.4757752,15.8257108 77.2835362,17.6107779 77.2835362,19.8152172" id="Fill-7"></path>
                                <path d="M0.0890026005,45.5623029 L5.10092794,45.5623029 C6.47335063,45.5623029 7.61519155,47.923551 7.61519155,47.923551 L47.8729238,43.0096023 L47.8729238,19.8146702 L34.6541321,15.8251638 C34.6541321,15.8251638 34.3516089,14.8478441 35.8679146,13.8723478 C37.3934436,12.8950281 44.5340998,9.96671577 44.5340998,9.96671577 C44.5340998,9.96671577 52.9623246,6.0647305 51.4441742,2.45448245 C49.9260239,-1.14482546 44.3809935,0.50531317 44.3809935,0.50531317 C44.3809935,0.50531317 35.6373328,2.34143428 31.4665698,3.36069118 C26.1908589,4.64615829 20.8284493,7.64011147 16.8753554,10.1180545 C12.9277955,12.5959974 7.16140663,17.3257871 7.16140663,18.977749 L0.0890026005,19.3551841 L0.0890026005,45.5623029 Z" id="Fill-9"></path>
                            </g>
                            <g id="Page-1" transform="translate(35.671338, 0.000000)">
                                <path d="M36.0295544,71.3506041 L4.90274487,71.3506041 C2.19542667,71.3506041 0,69.1805236 0,66.5044615 L0,5.63793567 C0,2.96101879 2.19542667,0.791793039 4.90274487,0.791793039 L36.0295544,0.791793039 C38.7368726,0.791793039 40.9322992,2.96101879 40.9322992,5.63793567 L40.9322992,66.5044615 C40.9322992,69.1805236 38.7368726,71.3506041 36.0295544,71.3506041 Z" id="Fill-1" fill="#B5B9C1"></path>
                                <polygon id="Fill-3" fill="#FFFFFF" points="3.05405553 61.1327645 37.8782437 61.1327645 37.8782437 9.1653634 3.05405553 9.1653634"></polygon>
                                <path d="M23.4333911,66.0801035 C23.4333911,67.7125783 22.1043754,69.0365069 20.4658037,69.0365069 C18.827232,69.0365069 17.4982164,67.7125783 17.4982164,66.0801035 C17.4982164,64.4476286 18.827232,63.1237 20.4658037,63.1237 C22.1043754,63.1237 23.4333911,64.4476286 23.4333911,66.0801035" id="Fill-5" fill="#657585"></path>
                            </g>
                            <path d="M0.622908746,58.1980437 L5.63483408,58.1980437 C7.00725677,58.1980437 8.14909769,60.5592918 8.14909769,60.5592918 L34.0591099,54.737311 L33.5665873,34.4688678 L35.1880383,28.4609045 C35.1880383,28.4609045 34.885515,27.4835849 36.4018207,26.5080885 C37.9273497,25.5307689 45.0680059,22.6024566 45.0680059,22.6024566 C45.0680059,22.6024566 53.4962308,18.7004713 51.9780804,15.0902232 C50.45993,11.4909153 44.9148996,13.141054 44.9148996,13.141054 C44.9148996,13.141054 36.1712389,14.9771751 32.0004759,15.996432 C26.724765,17.2818991 21.3623554,20.2758523 17.4092615,22.7537952 C13.4617017,25.2317382 7.69531277,29.9615278 7.69531277,31.6134898 L0.622908746,31.9909249 L0.622908746,58.1980437 Z" id="Fill-29" fill="#CCC8C4"></path>
                        </g>
                        <g id="Group-102" stroke-width="1" fill="none" transform="translate(118.421053, 0.000000)">
                            <path d="M21.1061484,10.8146424 C21.1061484,16.6234262 16.5238789,21.3327228 10.8717793,21.3327228 C5.21904601,21.3327228 0.636776479,16.6234262 0.636776479,10.8146424 C0.636776479,5.00585854 5.21904601,0.296561929 10.8717793,0.296561929 C16.5238789,0.296561929 21.1061484,5.00585854 21.1061484,10.8146424" id="Fill-379" fill="#CD2027"></path>
                            <path d="M8.14144737,15.4677548 L8.14144737,13.7260315 L9.90970906,13.7260315 L9.90970906,8.93075605 L8.81642898,8.93075605 L8.81642898,7.45478563 C9.6270407,7.31539566 10.0567473,7.12650272 10.5726487,6.47058824 L11.9847229,6.47058824 L11.9847229,13.7260315 L13.7529846,13.7260315 L13.7529846,15.4677548 L8.14144737,15.4677548 Z" id="Fill-380" fill="#FFFFFF"></path>
                        </g>
                        <polygon id="Fill-11" fill="#8E9738" points="0 70.5882353 57.2368421 70.5882353 57.2368421 35.2941176 0 35.2941176"></polygon>
                    </g>
                </g>
            </g>
        </g>
    </g>
</svg>