<?xml version="1.0" encoding="UTF-8"?>
<svg width="72px" height="72px" viewBox="0 0 72 72" version="1.1" xmlns="http://www.w3.org/2000/svg" xmlns:xlink="http://www.w3.org/1999/xlink">
    <!-- Generator: Sketch 46.2 (44496) - http://www.bohemiancoding.com/sketch -->
    <title>Forstørrelsesglass</title>
    <desc>Created with Sketch.</desc>
    <defs>
        <circle id="path-1" cx="36" cy="36" r="36"></circle>
    </defs>
    <g id="Flyt" stroke="none" stroke-width="1" fill="none" fill-rule="evenodd">
        <g id="Søknad" transform="translate(-216.000000, -387.000000)">
            <g id="Forstørrelsesglass" transform="translate(216.000000, 387.000000)">
                <mask id="mask-2" fill="white">
                    <use xlink:href="#path-1"></use>
                </mask>
                <use id="Oval" fill="#DCF3FA" xlink:href="#path-1"></use>
                <g id="Hånd-med-forstørrelsesglass" mask="url(#mask-2)">
                    <g transform="translate(10.800000, 9.360000)">
                        <path d="M21.2472,6.503688 C24.86952,11.627928 23.65272,18.719208 18.52848,22.341528 C13.40352,25.963848 6.31296,24.746328 2.69064,19.622088 C-0.9324,14.497848 0.28584,7.406568 5.41008,3.784248 C10.53432,0.161928 17.62488,1.379448 21.2472,6.503688 Z" id="Fill-95" fill="#B1CAC9"></path>
                        <path d="M32.088024,40.68576 C30.933144,41.50152 29.337624,41.22648 28.521864,40.07304 L19.803384,27.73944 C18.987624,26.586 19.261224,24.98904 20.415384,24.17328 C21.569544,23.35752 23.165064,23.63256 23.980824,24.786 L32.700024,37.1196 C33.515064,38.27304 33.242184,39.87 32.088024,40.68576" id="Fill-97" fill="#C52C35"></path>
                        <path d="M6.23196,4.110264 C1.49292,7.460424 0.36324,14.041944 3.71268,18.780264 C7.06212,23.518584 13.64364,24.648264 18.38268,21.298824 C23.12172,17.948664 24.2514,11.367144 20.90196,6.628824 C17.55252,1.890504 10.971,0.760104 6.23196,4.110264 M19.36692,22.691304 C13.86036,26.583624 6.21324,25.271784 2.31948,19.764504 C-1.57284,14.257944 -0.25956,6.610824 5.24772,2.717784 C10.75428,-1.175256 18.4014,0.137304 22.29516,5.643864 C26.18748,11.151144 24.8742,18.798264 19.36692,22.691304" id="Fill-99" fill="#2F3238"></path>
                        <path d="M21.912408,26.291376 C21.143448,26.834976 20.312568,26.983296 19.768248,26.213616 L17.950248,23.641776 C17.405928,22.871376 17.589528,21.807936 18.358488,21.264336 C19.128168,20.720736 20.191608,20.902896 20.735928,21.672576 L22.553928,24.244416 C23.097528,25.014096 22.681368,25.747776 21.912408,26.291376" id="Fill-101" fill="#2F3238"></path>
                        <path d="M20.821824,28.093824 L29.050704,39.734064 C29.322864,40.119264 29.854224,40.210704 30.238704,39.938544 C30.623904,39.666384 30.714624,39.135024 30.442464,38.749824 L22.567824,27.609984 C21.914784,28.053504 21.299904,28.171584 20.821824,28.093824" id="Fill-103" fill="#D94C56"></path>
                        <path d="M39.410352,32.476104 L39.410352,32.476104 C40.285872,32.476104 40.993632,33.093864 40.993632,33.856344 L40.993632,48.538584 C40.993632,49.301064 40.285872,49.918824 39.410352,49.918824 C38.536992,49.918824 37.828512,49.301064 37.828512,48.538584 L37.828512,33.856344 C37.828512,33.093864 38.536992,32.476104 39.410352,32.476104" id="Fill-105" fill="#CCC8C4"></path>
                        <path d="M35.936208,30.09636 L35.936208,30.09636 C36.810288,30.09636 37.518768,30.8034 37.518768,31.67892 L37.518768,50.71572 C37.518768,51.59052 36.810288,52.29828 35.936208,52.29828 C35.061408,52.29828 34.352928,51.59052 34.352928,50.71572 L34.352928,31.67892 C34.352928,30.8034 35.061408,30.09636 35.936208,30.09636" id="Fill-107" fill="#CCC8C4"></path>
                        <path d="M32.459976,27.40968 L32.459976,27.40968 C33.334056,27.40968 34.043256,28.1196 34.043256,28.99296 L34.043256,51.80976 C34.043256,52.68384 33.334056,53.3916 32.459976,53.3916 C31.585896,53.3916 30.877416,52.68384 30.877416,51.80976 L30.877416,28.99296 C30.877416,28.1196 31.585896,27.40968 32.459976,27.40968" id="Fill-109" fill="#CCC8C4"></path>
                        <path d="M28.983744,25.046136 L28.983744,25.046136 C29.858544,25.046136 30.567024,25.756056 30.567024,26.629416 L30.567024,41.853096 C30.567024,42.727896 29.858544,43.436376 28.983744,43.436376 C28.108944,43.436376 27.400464,42.727896 27.400464,41.853096 L27.400464,26.629416 C27.400464,25.756056 28.108944,25.046136 28.983744,25.046136" id="Fill-111" fill="#CCC8C4"></path>
                        <path d="M39.201552,52.693056 L39.201552,50.726736 C39.201552,50.188896 40.138992,49.740336 40.138992,49.740336 L38.188512,33.947856 L28.984032,33.947856 L27.400032,39.134016 C27.400032,39.134016 27.012672,39.252816 26.625312,38.657376 C26.237952,38.059776 25.075152,35.258976 25.075152,35.258976 C25.075152,35.258976 23.526432,31.952736 22.094352,32.548176 C20.665152,33.143616 21.320352,35.318736 21.320352,35.318736 C21.320352,35.318736 22.049712,38.748816 22.453632,40.384656 C22.963392,42.453216 24.152112,44.557056 25.135632,46.108656 C26.118432,47.656656 27.996192,49.918896 28.652112,49.918896 L28.801872,52.693056 L39.201552,52.693056 Z" id="Fill-113" fill="#CCC8C4"></path>
                        <polygon id="Fill-115" fill="#561D5B" points="27.00072 64.1916 41.08464 64.1916 41.08464 52.6932 27.00072 52.6932"></polygon>
                        <polygon id="Fill-117" fill="#7C7086" points="27.00072 56.94624 41.08464 56.94624 41.08464 52.6932 27.00072 52.6932"></polygon>
                        <path d="M39.616344,54.850536 C39.616344,54.356616 39.215304,53.956296 38.721384,53.956296 C38.228184,53.956296 37.828584,54.356616 37.828584,54.850536 C37.828584,55.343736 38.228184,55.744776 38.721384,55.744776 C39.215304,55.744776 39.616344,55.343736 39.616344,54.850536" id="Fill-118" fill="#2F3237"></path>
                    </g>
                </g>
            </g>
        </g>
    </g>
</svg>