<?xml version="1.0" encoding="UTF-8" standalone="no"?>
<svg width="24px" height="23px" viewBox="0 0 24 23" version="1.1" xmlns="http://www.w3.org/2000/svg" xmlns:xlink="http://www.w3.org/1999/xlink">
    <!-- Generator: Sketch 46.2 (44496) - http://www.bohemiancoding.com/sketch -->
    <title>report problem circle</title>
    <desc>Created with Sketch.</desc>
    <defs></defs>
    <g id="Visning-Sykmeldt" stroke="none" stroke-width="1" fill="none" fill-rule="evenodd">
        <g id="AG_Visning-når-lagt-til-Copy-7" transform="translate(-148.000000, -549.000000)" fill-rule="nonzero">
            <g id="report-problem-circle" transform="translate(148.000000, 549.000000)">
                <path d="M11.7965217,23.004 C5.29773913,23.004 0.116869565,18.039 0.00208695652,11.701 C-0.0532173913,8.64 1.17913043,5.729 3.47269565,3.508 C5.7506087,1.3 8.77669565,0.056 11.9906087,0.002 L12.2045217,0 C18.7033043,0 23.882087,4.964 23.997913,11.301 C24.1126957,17.64 18.7346087,22.889 12.0093913,23.002 L11.7965217,23.004 Z" id="Shape" fill="#3E3832"></path>
                <path d="M12,13.5 C11.712,13.5 11.4782609,13.276 11.4782609,13 L11.4782609,6 C11.4782609,5.724 11.712,5.5 12,5.5 C12.288,5.5 12.5217391,5.724 12.5217391,6 L12.5217391,13 C12.5217391,13.276 12.288,13.5 12,13.5 Z" id="Shape" fill="#FDBC6D"></path>
                <ellipse id="Oval" fill="#FDBC6D" cx="12" cy="16.5" rx="1.04347826" ry="1"></ellipse>
            </g>
        </g>
    </g>
</svg>