<?xml version="1.0" encoding="UTF-8" standalone="no"?>
<svg width="150px" height="150px" viewBox="0 0 150 150" version="1.1" xmlns="http://www.w3.org/2000/svg" xmlns:xlink="http://www.w3.org/1999/xlink">
    <!-- Generator: Sketch 46.2 (44496) - http://www.bohemiancoding.com/sketch -->
    <title>Nytt oppfølgingstilfelle</title>
    <desc>Created with Sketch.</desc>
    <defs>
        <ellipse id="path-1" cx="74.8824267" cy="74.9693642" rx="74.8824267" ry="74.9693642"></ellipse>
    </defs>
    <g id="Leder-endres" stroke="none" stroke-width="1" fill="none" fill-rule="evenodd">
        <g id="Mulig-å-opprette-ny-plan_AT-Copy-4" transform="translate(-473.000000, -445.000000)">
            <g id="Nytt-oppfølgingstilfelle" transform="translate(473.000000, 445.000000)">
                <g id="Tom-plan-Copy-3">
                    <g id="Group-19">
                        <mask id="mask-2" fill="white">
                            <use xlink:href="#path-1"></use>
                        </mask>
                        <use id="Mask" fill="#C9E9F1" xlink:href="#path-1"></use>
                        <g id="Group-2" mask="url(#mask-2)">
                            <g transform="translate(12.000000, 28.000000)" id="Stående-mann-med-arm-opp">
                                <g>
                                    <path d="M47,34.0456956 C47.0237011,49.7375797 46.9480833,68.5059229 76.2663398,68.4590849 C105.584596,68.4122469 75.3758558,34 75.3758558,34 L47,34.0456956 Z" id="Path" fill="#F5B773"></path>
                                    <path d="M104.989443,34 C105.013144,49.691884 105.148579,68.4602273 75.8303223,68.5070653 C46.5120658,68.5539034 76.6135871,34.0456956 76.6135871,34.0456956 L104.989443,34 Z" id="Path" fill="#F5B773"></path>
                                    <path d="M47.0000457,33.2002047 C46.9718301,51.5618567 60.0266198,66.4689181 76.1614235,66.4940507 C92.2950985,66.5203257 105.39729,51.6555328 105.425506,33.2938808 C105.453722,14.9310864 92.3978033,0.0251673831 76.2641282,3.47791106e-05 C60.1304532,-0.026240216 47.0282612,14.8385527 47.0000457,33.2002047" id="Path" fill="#F5B773"></path>
                                    <path d="M1.28696207,34.9029113 L1.28696207,34.9029113 C0.642651724,35.1419629 0.314755172,35.8578392 0.553341379,36.5021278 L6.7718931,53.330334 C7.01047931,53.9746227 7.72496207,54.3031588 8.36927241,54.0641072 C9.01103103,53.826334 9.34020345,53.1104577 9.1028931,52.4648907 L2.88306552,35.6379629 C2.64447931,34.9936742 1.92872069,34.6638598 1.28696207,34.9029113" id="Fill-34" fill="#E7E5E2"></path>
                                    <path d="M3.30792759,32.5060041 L3.30792759,32.5060041 C2.66616897,32.7437773 2.33572069,33.4596536 2.5743069,34.1052206 L8.79413448,50.9308701 C9.03272069,51.5764371 9.74720345,51.9036948 10.3902379,51.6659216 C11.0345483,51.4268701 11.3624448,50.7109938 11.1238586,50.0667052 L4.9053069,33.2397773 C4.66672069,32.5942103 3.95223793,32.2669526 3.30792759,32.5060041" id="Fill-35" fill="#E7E5E2"></path>
                                    <path d="M5.47893448,30.501167 L5.47893448,30.501167 C4.83462414,30.7402186 4.50545172,31.4573732 4.74403793,32.1003835 L10.9625897,48.9285897 C11.2011759,49.5728784 11.9156586,49.9014144 12.5612448,49.6623629 C13.2030034,49.4233113 13.5321759,48.7074351 13.2935897,48.0631464 L7.07376207,31.2362186 C6.83517586,30.5919299 6.1206931,30.2621155 5.47893448,30.501167" id="Fill-36" fill="#E7E5E2"></path>
                                    <path d="M8.54585172,30.9305649 L8.54585172,30.9305649 C7.9040931,31.1696165 7.57364483,31.8867711 7.81223103,32.5310598 L12.3045414,44.6868948 C12.5431276,45.3324619 13.2588862,45.6597196 13.9019207,45.420668 C14.546231,45.1816165 14.8741276,44.4670186 14.6355414,43.8214515 L10.143231,31.6668948 C9.90464483,31.0213278 9.19016207,30.6915134 8.54585172,30.9305649" id="Fill-37" fill="#E7E5E2"></path>
                                    <path d="M9.27908966,56.053732 L8.74322759,54.6028041 C8.59650345,54.2065155 7.78505517,54.1323711 7.78505517,54.1323711 L4.91436552,41.9522474 L11.690469,39.437732 L14.2702621,42.8304742 C14.2702621,42.8304742 14.5879517,42.8125773 14.7104345,42.2667216 C14.8329172,41.7221443 14.9235034,39.3380206 14.9235034,39.3380206 C14.9235034,39.3380206 15.1633655,36.4770722 16.3792621,36.5243711 C17.5938828,36.5729485 17.7048828,38.3562474 17.7048828,38.3562474 C17.7048828,38.3562474 18.1029517,41.0855258 18.2509517,42.4022268 C18.4397793,44.0679175 18.1386759,45.9432577 17.8388483,47.3558351 C17.536469,48.7658557 16.7709517,50.9467216 16.2886759,51.1256907 L16.9342621,53.2132371 L9.27908966,56.053732 Z" id="Fill-38" fill="#E7E5E2"></path>
                                    <path d="M58.1687207,82.4965402 L36.5964448,93.5223134 L30.2707207,95.7287464 C25.8638931,97.2653237 21.0475138,94.9310557 19.5139276,90.5143546 L17.8782724,85.807468 L7.58461724,56.171468 L18.2737897,52.4437979 L30.4506172,79.7455299 L52.079031,64.9639629 L58.1687207,82.4965402 Z" id="Fill-39" fill="#8E9738"></path>
                                    <path d="M52.9438103,81.3361814 L60.5428448,88.0257897 L91.5871207,88.0283464 L99.1848793,88.0283464 L99.1848793,109.839563 L99.1848793,136.99812 L110.504328,136.99812 L110.504328,109.839563 L110.504328,81.3361814 C110.504328,70.5047175 92.0681207,58.8678928 86.4619828,58.8678928 L76.0649828,58.8678928 L65.6667069,58.8678928 C61.9794655,58.8678928 57.6389828,61.1126763 52.0787759,64.963068" id="Fill-40" fill="#8E9738"></path>
                                    <path d="M99.4080276,136.99927 L99.4080276,109.839435 L99.4080276,64.9629402 C94.4755448,61.2966309 89.2445103,58.8677649 86.685131,58.8677649 L76.288131,58.8677649 L65.8898552,58.8677649 C63.3304759,58.8677649 58.0994414,61.2966309 53.1669586,64.9629402 L53.1669586,109.839435 L53.1669586,136.996713 L99.4080276,136.99927 Z" id="Fill-41" fill="#8E9738"></path>
                                    <path d="M100.026308,28.4456231 C99.7791828,28.4456231 99.5441932,28.496372 99.3279586,28.5802181 C92.0554165,18.7978105 78.0343701,27.8300165 67.3340688,18.4811813 C65.9627445,17.0182883 65.2478466,16 65.0602962,16 C65.0602962,16 54.681037,24.9980057 52.953367,28.4456231 C52.953367,28.4456231 52.8309076,28.6916451 52.6742479,28.5802181 C52.4569101,28.496372 52.2230237,28.4456231 51.9758985,28.4456231 C51.0160818,28.4456231 50.2239572,29.1428693 50.0672975,30.05635 C50.0275809,30.2108032 50,30.3707727 50,30.5373616 L50,38.3813807 C50,39.4537277 50.8693512,40.3241821 51.9428014,40.3241821 C52.373064,40.3241821 52.7669198,40.179658 53.087962,39.9424619 C54.7858446,47.7048415 59.2991895,54.1334069 65.2721178,57.6990707 C63.6095388,58.3919039 61.0500276,59.7477829 61.0500276,59.7477829 C62.2691051,61.5372343 65.7310646,69.8644715 75.9944838,69.8644715 C86.257903,69.8644715 89.7297917,61.5383375 90.9488692,59.7477829 C90.9488692,59.7477829 88.7159163,58.522086 86.8315865,57.6383927 C92.7526626,54.05949 97.2240845,47.6596088 98.912038,39.9424619 C99.2330802,40.179658 99.626936,40.3241821 100.057199,40.3241821 C101.129546,40.3241821 102,39.4537277 102,38.3813807 L102,30.5373616 C102,30.3707727 101.972419,30.2108032 101.932703,30.05635 C101.77494,29.141766 100.985021,28.4456231 100.026308,28.4456231 Z" id="Fill-79" fill="#E7E5E2"></path>
                                    <g id="Blid-mann" transform="translate(66.000000, 29.000000)">
                                        <path d="M1.50727314,4.99588789 C0.129144554,5.10743065 -0.256579066,2.92467177 0.157716674,1.4991757 C0.236766206,1.22901707 0.692967722,0 1.50060631,0 C2.3072925,0 2.6634916,0.671303247 2.71301661,0.786939325 C3.3063643,2.17661891 3.01492867,4.87308851 1.50727314,4.99588789" id="Fill-61" fill="#635E59"></path>
                                        <path d="M19.493024,4.99588789 C20.8712461,5.10743065 21.2569959,2.92467177 20.8417196,1.4991757 C20.7636172,1.22901707 20.3073847,0 19.4996912,0 C18.6929503,0 18.336727,0.671303247 18.2871986,0.786939325 C17.6938107,2.17661891 17.9843136,4.87308851 19.493024,4.99588789" id="Fill-63" fill="#635E59"></path>
                                        <path d="M10.4422146,8.0739575 C11.2738916,7.9283117 12.0844162,7.9633543 12.4651608,8.49556379 C13.3929855,9.79323507 13.1266566,11.2924013 11.5642575,12.4006235 C10.7835387,12.9536396 9.67784084,13.1803214 9,12.838656" id="Stroke-65" stroke="#D1BFA3" stroke-width="0.506" stroke-linecap="round"></path>
                                        <path d="M18,17 C18,17 16.0283311,21.1504209 10.5426044,20.9957838 C5.05687783,20.8411466 3,17 3,17" id="Stroke-67" stroke="#593A32" stroke-width="1.013" stroke-linecap="round"></path>
                                    </g>
                                </g>
                            </g>
                        </g>
                    </g>
                </g>
            </g>
        </g>
    </g>
</svg>