<svg id="Layer_1" data-name="Layer 1" xmlns="http://www.w3.org/2000/svg" viewBox="0 0 24 24"><defs><style>.cls-1{fill:#2968b2;}</style></defs><title>filled</title><path class="cls-1" d="M600,419V414.5a.5.5,0,0,0-.15-.35l-5-5a.5.5,0,0,0-.35-.15h-11a.5.5,0,0,0-.5.5v21a.5.5,0,0,0,.5.5h11A7.48,7.48,0,0,1,600,419Zm-5.5-9.53,5,5h-5Z" transform="translate(-583.03 -409)"/><path class="cls-1" d="M600.53,420a6.49,6.49,0,0,0-4.93,10.72l9.16-9.15A6.47,6.47,0,0,0,600.53,420Z" transform="translate(-583.03 -409)"/><path class="cls-1" d="M605.46,422.28l-9.16,9.15a6.49,6.49,0,0,0,9.16-9.15Z" transform="translate(-583.03 -409)"/></svg>