<?xml version="1.0" encoding="UTF-8" standalone="no"?>
<svg width="24px" height="24px" viewBox="0 0 24 24" version="1.1" xmlns="http://www.w3.org/2000/svg" xmlns:xlink="http://www.w3.org/1999/xlink">
    <!-- Generator: Sketch 47.1 (45422) - http://www.bohemiancoding.com/sketch -->
    <title>icon/line/ file block</title>
    <desc>Created with Sketch.</desc>
    <defs></defs>
    <g id="Ny-versjon" stroke="none" stroke-width="1" fill="none" fill-rule="evenodd">
        <g id="icon/line/-file-block" fill="#3E3832">
            <g id="file-block">
                <path d="M1,1 L11,1 L11,5.5 C11,5.776 11.224,6 11.5,6 L16,6 L16,9.5 L17,9.5 L17,5.502 L17,5.501 L17,5.5 C17,5.446 16.985,5.398 16.97,5.35 C16.966,5.337 16.967,5.323 16.962,5.311 C16.936,5.247 16.897,5.19 16.847,5.142 L11.855,0.148 C11.809,0.102 11.754,0.065 11.693,0.04 C11.632,0.014 11.566,0 11.5,0 L0.5,0 C0.224,0 0,0.224 0,0.5 L0,21.5 C0,21.776 0.224,22 0.5,22 L10,22 L10,21 L1,21 L1,1 Z M12,1.707 L15.291,5 L12,5 L12,1.707 Z" id="Shape" fill-rule="nonzero"></path>
                <path d="M17.5,11 C13.916,11 11,13.916 11,17.5 C11,21.084 13.916,24 17.5,24 C21.084,24 24,21.084 24,17.5 C24,13.916 21.084,11 17.5,11 Z M12,17.5 C12,14.468 14.468,12 17.5,12 C18.837,12 20.063,12.48 21.017,13.276 L13.277,21.016 C12.48,20.063 12,18.837 12,17.5 Z M17.5,23 C16.163,23 14.937,22.52 13.983,21.724 L21.723,13.984 C22.52,14.938 23,16.163 23,17.5 C23,20.532 20.532,23 17.5,23 Z" id="Shape" fill-rule="nonzero"></path>
            </g>
        </g>
    </g>
</svg>