<?xml version="1.0" encoding="UTF-8"?>
<svg width="32px" height="32px" viewBox="0 0 32 32" version="1.1" xmlns="http://www.w3.org/2000/svg" xmlns:xlink="http://www.w3.org/1999/xlink">
    <!-- Generator: Sketch 48.2 (47327) - http://www.bohemiancoding.com/sketch -->
    <title>icon/line/alerts/ help circle</title>
    <desc>Created with Sketch.</desc>
    <defs>
        <path d="M16,32 C7.17773913,32 0,24.8222609 0,16 C0,7.17773913 7.17773913,0 16,0 C24.8222609,0 32,7.17773913 32,16 C32,24.8222609 24.8222609,32 16,32 Z M16,1.39130435 C7.94434783,1.39130435 1.39130435,7.94434783 1.39130435,16 C1.39130435,24.0556522 7.94434783,30.6086957 16,30.6086957 C24.0556522,30.6086957 30.6086957,24.0556522 30.6086957,16 C30.6086957,7.94434783 24.0556522,1.39130435 16,1.39130435 Z M16,21.5652174 C15.616,21.5652174 15.3043478,21.2535652 15.3043478,20.8695652 L15.3043478,16.6956522 C15.3043478,16.3116522 15.616,16 16,16 C17.9172174,16 19.4782609,14.4389565 19.4782609,12.5217391 C19.4782609,10.6045217 17.9172174,9.04347826 16,9.04347826 C14.0827826,9.04347826 12.5217391,10.6045217 12.5217391,12.5217391 C12.5217391,12.9057391 12.210087,13.2173913 11.826087,13.2173913 C11.442087,13.2173913 11.1304348,12.9057391 11.1304348,12.5217391 C11.1304348,9.83652174 13.3147826,7.65217391 16,7.65217391 C18.6852174,7.65217391 20.8695652,9.83652174 20.8695652,12.5217391 C20.8695652,14.9704348 19.0525217,17.0031304 16.6956522,17.3426087 L16.6956522,20.8695652 C16.6956522,21.2535652 16.384,21.5652174 16,21.5652174 Z M16,25.7391304 C15.2316038,25.7391304 14.6086957,25.1162223 14.6086957,24.3478261 C14.6086957,23.5794299 15.2316038,22.9565217 16,22.9565217 C16.7683962,22.9565217 17.3913043,23.5794299 17.3913043,24.3478261 C17.3913043,25.1162223 16.7683962,25.7391304 16,25.7391304 Z" id="path-1"></path>
    </defs>
    <g id="Dine-sykmeldte---nytt-design" stroke="none" stroke-width="1" fill="none" fill-rule="evenodd" transform="translate(-209.000000, -1473.000000)">
        <g id="icon/line/alerts/-help-circle" transform="translate(209.000000, 1473.000000)">
            <mask id="mask-2" fill="white">
                <use xlink:href="#path-1"></use>
            </mask>
            <use id="Mask" fill="#0067C5" fill-rule="evenodd" xlink:href="#path-1"></use>
            <g id="⚙️/-interaksjonsfarge/-nav-grå" mask="url(#mask-2)" fill="#3E3832" fill-rule="evenodd">
                <rect id="iconfarge-/-nav-grå" x="0" y="0" width="32" height="32"></rect>
            </g>
        </g>
    </g>
</svg>