<?xml version="1.0" encoding="UTF-8"?>
<svg width="32px" height="32px" viewBox="0 0 32 32" version="1.1" xmlns="http://www.w3.org/2000/svg" xmlns:xlink="http://www.w3.org/1999/xlink">
    <!-- Generator: Sketch 48.2 (47327) - http://www.bohemiancoding.com/sketch -->
    <title>icon/fill/alerts/ help circle</title>
    <desc>Created with Sketch.</desc>
    <defs>
        <path d="M16,0 C24.8213333,0 32,7.17733333 32,16 C32,24.8226667 24.8213333,32 16,32 C7.17733333,32 0,24.8226667 0,16 C0,7.17733333 7.17733333,0 16,0 Z M16,25.3333333 C16.7346667,25.3333333 17.3333333,24.7373333 17.3333333,24 C17.3333333,23.264 16.7346667,22.6666667 16,22.6666667 C15.2626667,22.6666667 14.6666667,23.264 14.6666667,24 C14.6666667,24.7373333 15.2626667,25.3333333 16,25.3333333 Z M16.6666667,17.2866667 C18.924,16.9613333 20.6666667,15.0133333 20.6666667,12.6666667 C20.6666667,10.0933333 18.5733333,8 16,8 C13.4253333,8 11.3333333,10.0933333 11.3333333,12.6666667 C11.3333333,13.0346667 11.632,13.3333333 12,13.3333333 C12.3666667,13.3333333 12.6666667,13.0346667 12.6666667,12.6666667 C12.6666667,10.828 14.1613333,9.33333333 16,9.33333333 C17.8373333,9.33333333 19.3333333,10.828 19.3333333,12.6666667 C19.3333333,14.5053333 17.8373333,16 16,16 C15.632,16 15.3333333,16.2986667 15.3333333,16.6666667 L15.3333333,20.6666667 C15.3333333,21.0346667 15.632,21.3333333 16,21.3333333 C16.3666667,21.3333333 16.6666667,21.0346667 16.6666667,20.6666667 L16.6666667,17.2866667 Z" id="path-1"></path>
    </defs>
    <g id="Dine-sykmeldte---nytt-design" stroke="none" stroke-width="1" fill="none" fill-rule="evenodd" transform="translate(-78.000000, -1492.000000)">
        <g id="icon/fill/alerts/-help-circle" transform="translate(78.000000, 1492.000000)">
            <mask id="mask-2" fill="white">
                <use xlink:href="#path-1"></use>
            </mask>
            <use id="Mask" fill="#0067C5" fill-rule="evenodd" xlink:href="#path-1"></use>
            <g id="⚙️/-interaksjonsfarge/-nav-grå" mask="url(#mask-2)" fill="#3E3832" fill-rule="evenodd">
                <rect id="iconfarge-/-nav-grå" x="0" y="0" width="32" height="32"></rect>
            </g>
        </g>
    </g>
</svg>