<?xml version="1.0" encoding="UTF-8"?>
<svg width="260px" height="131px" viewBox="0 0 260 131" version="1.1" xmlns="http://www.w3.org/2000/svg" xmlns:xlink="http://www.w3.org/1999/xlink">
    <!-- Generator: Sketch 44.1 (41455) - http://www.bohemiancoding.com/sketch -->
    <title>sykmeldt og leder</title>
    <desc>Created with Sketch.</desc>
    <defs>
        <path d="M6.29981413,12.6331444 C7.10119659,12.6331444 7.80650134,12.2259359 8.2209715,11.6082641 C8.46736078,11.24136 8.61119074,10.8010919 8.61119074,10.3261424 C8.61119074,9.71491763 8.36965164,9.16417593 7.98097564,8.75131797 C7.5592743,8.30297661 6.96468599,8.01913153 6.29981413,8.01913153 C5.02333423,8.01913153 3.98918709,9.05208949 3.98918709,10.3261424 C3.98918709,11.6001997 5.02333423,12.6331444 6.29981413,12.6331444 Z M6.50656419,3.9945739 C6.87663313,3.9945739 7.23691352,4.03248102 7.58921315,4.09456373 L7.26037077,0.190958983 L30.4220214,0.190958983 L28.1751963,26.9202942 L9.5087391,26.9202942 L8.60232814,16.1367942 C7.94543703,16.369838 7.24260146,16.5028875 6.50656419,16.5028875 C3.04635566,16.5028875 0.241318636,13.7031898 0.241318636,10.2487285 C0.241318636,6.79508237 3.04635566,3.9945739 6.50656419,3.9945739 Z" id="path-1"></path>
        <path d="M24.1850833,12.6331444 C25.4615632,12.6331444 26.4956663,11.6001997 26.4956663,10.3261424 C26.4956663,9.05208949 25.4615632,8.01913153 24.1850833,8.01913153 C23.5202114,8.01913153 22.925579,8.30297661 22.5038336,8.75131797 C22.1152458,9.16417593 21.8737067,9.71491763 21.8737067,10.3261424 C21.8737067,10.8010919 22.0174926,11.24136 22.2639259,11.6082641 C22.678352,12.2259359 23.3836568,12.6331444 24.1850833,12.6331444 Z M23.9782892,3.9945739 C27.4384977,3.9945739 30.2435347,6.79508237 30.2435347,10.2487285 C30.2435347,13.7031898 27.4384977,16.5028875 23.9782892,16.5028875 C23.242296,16.5028875 22.5394163,16.369838 21.8825693,16.1367942 L20.9761143,26.9202942 L2.30961291,26.9202942 L0.0628319123,0.190958983 L23.2245267,0.190958983 L22.8956843,4.09456373 C23.2479398,4.03248102 23.6082643,3.9945739 23.9782892,3.9945739 Z" id="path-3"></path>
        <path d="M0.386691839,39.1257695 C0.386691839,17.5188881 15.9944475,0.000528813559 35.2489674,0.000528813559 C54.5034431,0.000528813559 70.1123011,17.5188881 70.1123011,39.1257695 C70.1123011,44.430078 69.6540029,58.0361424 65.3296682,70.8695661 C60.8265822,68.1742034 47.4040543,68.0768136 35.2544348,67.3742407 C24.4600446,66.750461 12.8597744,67.4125356 7.82713666,70.1396271 C1.36144629,59.413922 0.386691839,53.7440712 0.386691839,39.1257695 Z" id="path-5"></path>
        <path d="M62.5281223,63.6919365 L0.384002192,63.6919365 L0.384002192,46.0197118 L0.384002192,28.3474871 C0.384002192,14.9132475 17.9730134,0.157013559 24.4704945,0.157013559 L36.5225371,0.157013559 L48.5745357,0.157013559 C55.0709145,0.157013559 73.3792078,14.9132475 73.3792078,28.3474871 C73.3792078,28.3474871 73.9475424,32.9519734 73.9524112,38.8371391 L73.9524112,38.9891068 C73.9438222,49.3501457 72.1717075,63.5635772 62.5281223,63.6919365 L62.5281223,63.6919365 Z" id="path-7"></path>
        <polygon id="path-9" points="1.83879245 0.744305085 0.0526906212 0.234352542 0.601995859 18.8711525 4.06454129 18.8711525 9.28139781 6.87157966 15.0957968 3.68591864"></polygon>
        <path d="M53.654132,10.7037593 C53.654132,10.7037593 56.3360185,9.79984068 58.179132,11.1086983 C60.0233479,12.4186136 60.4805437,16.706278 58.179132,18.6991119 C55.8777203,20.6908 51.7342974,22.306061 51.7342974,22.306061 C51.7342974,22.306061 46.2367476,29.7410915 45.9341403,31.2184644 C45.6304307,32.696939 44.0493593,36.1999322 30.6388687,36.1999322 C17.2272758,36.1999322 12.8590689,31.4253186 10.694697,29.8242475 C6.82976273,26.9636305 4.9647352,23.2154881 3.94288989,19.2736237 C3.40562192,17.200939 3.06791693,15.1720136 2.79053057,13.4057322 C0.562577101,12.1636373 0.00996492083,10.6107763 0.48140268,8.49754915 C0.754423873,7.27078983 2.04166236,6.74550169 2.04166236,6.74550169 C2.04166236,6.74550169 2.09757174,2.4698678 2.35740926,0.2626 C2.35740926,0.2626 6.39448088,-0.18499661 10.9107065,0.387355932 C16.3523028,1.07785424 23.7006382,1.32630847 31.9271654,1.32630847 C40.1537367,1.32630847 43.4419401,0.693759322 43.4419401,0.693759322 L53.654132,10.7037593 Z" id="path-11"></path>
        <path d="M9.19374178,44.7838983 C3.36946602,40.4754339 1.31144531,29.4246847 0.525318879,21.5814542 C-0.260851644,13.7393695 2.45282558,9.82046441 3.04163776,9.02816949 C6.94603484,2.92059322 18.8609937,13.5565763 33.7089021,0.116867797 C37.6023642,11.4740644 51.6114996,25.9052542 51.6114996,25.9052542 C51.6114996,25.9052542 54.2593907,25.0133661 56.0794879,26.3057864 C57.8984828,27.5993085 58.3502112,31.8322407 56.0794879,33.7998678 C53.80656,35.767539 49.7146814,37.3608983 49.7146814,37.3608983 C49.7146814,37.3608983 44.2873269,44.7018 43.9868801,46.161678 C43.6886821,47.6215119 38.538714,51.2876 29.08196,51.2876 C17.1724687,51.2876 11.3306882,46.3641254 9.19374178,44.7838983 Z" id="path-13"></path>
        <path d="M1.56960731,0.145732203 C3.18687868,-0.124579661 3.25482533,1.83537966 3.22523922,3.1825322 C3.21756711,3.51414237 3.05746699,4.69493898 2.94128307,5.05933559 C2.94128307,5.05933559 0.247315225,5.39971525 0.217729111,5.28698983 C0.185938368,5.17426441 0.0970918392,4.17731864 0.0970918392,4.17731864 C-0.0190920828,2.52812542 0.387661876,0.343816949 1.56960731,0.145732203 Z" id="path-15"></path>
        <path d="M3.03184921,0.438518644 C5.07232107,0.61580339 5.13810719,3.7204678 4.20832716,5.58744407 C3.27854714,7.45437627 1.3696475,8.3408 0.482637272,6.43552881 C-0.405475274,4.53135932 0.613107186,0.230562712 3.03184921,0.438518644 Z" id="path-17"></path>
        <path d="M0.123282826,0.890389831 C2.62535981,-0.00586101695 5.62299318,0.204254237 5.62299318,0.204254237 L0.123282826,0.890389831 Z" id="path-19"></path>
        <polygon id="path-21" points="0.0750896468 4.26972881 1.04763946 19.004061 6.70850816 5.3520339 7.98807454 0.0247661017"></polygon>
        <path d="M0.0944021924,4.47103051 C0.0944021924,4.47103051 4.23672278,2.87872881 8.52269695,1.86754915 C12.8064665,0.856369492 18.3599257,0.2184 18.3599257,0.2184 C18.3599257,0.2184 19.2776244,0.811508475 19.7052341,1.35539322 C18.6702051,3.12497966 14.2044214,7.1160678 9.42399318,10.4056847 C5.76735225,12.9216034 2.23791839,15.5283458 2.23791839,15.5283458 L0.0944021924,4.47103051 Z" id="path-23"></path>
        <path d="M0.0136246041,0.375281356 L0.0136246041,52.5703386 C0.0136246041,52.5703386 -0.115742996,38.8854678 33.2893613,38.8854678 C66.6944214,38.8854678 32.3277905,0.375281356 32.3277905,0.375281356 L0.0136246041,0.375281356 Z" id="path-25"></path>
        <path d="M0.0422406821,39.4786057 L0.0422406821,40.1109271 C0.0780807435,50.6516808 1.93410292,64.9350708 11.7212462,65.0139704 L74.9059571,65.0139704 L74.9059571,47.0306755 L74.9059571,29.0473807 C74.9059571,15.3767525 57.0066665,0.361179661 50.3962643,0.361179661 L38.1304168,0.361179661 L25.866818,0.361179661 C19.2564158,0.361179661 0.62465944,15.3767525 0.62465944,29.0473807 C0.62465944,29.0473807 0.0620429865,33.6066297 0.042240682,39.4786057 L0.0422406821,39.4786057 Z" id="path-27"></path>
        <path d="M67.4656005,37.8820441 C67.4656005,58.5127356 52.1034404,74.7769695 33.7227912,74.7769695 C15.3388792,74.7769695 0.439426553,58.0531085 0.439426553,37.4224169 C0.439426553,16.7928271 15.3388792,0.0678644068 33.7227912,0.0678644068 C52.1034404,0.0678644068 67.4656005,17.2524542 67.4656005,37.8820441 Z" id="path-29"></path>
        <path d="M6.36097052,12.1630203 C6.36097052,12.1630203 3.72952594,11.2754949 1.9204078,12.5613492 C0.112347868,13.8461458 -0.337175883,18.0539153 1.9204078,20.0095119 C4.1790497,21.9640068 8.24570743,23.547539 8.24570743,23.547539 C8.24570743,23.547539 13.6401688,30.8435797 13.9362063,32.2946881 C14.2344485,33.7457966 10.8212426,35.9257424 10.8212426,35.9257424 C10.8212426,35.9257424 15.7858896,48.1726237 28.9464195,48.1726237 C42.1069493,48.1726237 48.1559649,36.2201153 48.1559649,36.2201153 C48.1559649,36.2201153 45.1725734,34.3805051 43.7921674,33.9734068 C43.5937067,33.3485695 46.3918212,32.4971356 48.5155839,30.925678 C52.3092646,28.1197492 54.1391944,24.4405288 55.1413744,20.5741966 C55.6698239,18.5387051 55.9998568,16.5480746 56.2717756,14.8157254 C58.4591639,13.5966339 59.0018994,12.0732983 58.539192,9.99841017 C58.27058,8.79461017 57.0075043,8.27919322 57.0075043,8.27919322 C57.0075043,8.27919322 57.1949859,2.43315932 56.9406158,0.268549153 C56.9406158,0.268549153 52.735772,1.47887119 48.305086,2.04029492 C42.9643294,2.71770508 35.75418,2.96170847 27.6811391,2.96170847 C19.6091564,2.96170847 16.3823739,2.3401322 16.3823739,2.3401322 L6.36097052,12.1630203 Z" id="path-31"></path>
        <path d="M1.78711596,0.267579661 C3.76947381,0.0968610169 4.79242144,3.00784746 4.57094446,5.06303729 C4.55013276,5.26658644 3.64336906,4.62200678 2.73334251,4.77302712 C1.82221364,4.92514915 0.906675518,5.87392881 0.631449695,5.32237627 C-0.2818838,3.4893322 -0.216097686,0.440501695 1.78711596,0.267579661 Z" id="path-33"></path>
        <path d="M1.97234884,0.0324779661 C3.13233618,0.226155932 3.53146212,2.37001017 3.4152341,3.98743051 C3.4152341,3.98743051 3.3286363,4.96688136 3.29900609,5.07630169 C3.26941998,5.18792542 0.624791717,4.85305424 0.624791717,4.85305424 C0.510768331,4.49742712 0.353975152,3.33848814 0.347405359,3.01348814 C0.317819245,1.69039661 0.384707674,-0.232369492 1.97234884,0.0324779661 Z" id="path-35"></path>
        <path d="M0.16212838,1.79157627 C0.16212838,1.79157627 8.05866675,1.76205085 10.0267827,1.26628814 C11.9959569,0.768366102 14.1504521,0.289040678 14.1504521,0.289040678 C14.1504521,0.289040678 13.213,3.97372542 10.7054555,4.84045085 C5.11584044,6.77198644 0.16212838,1.79157627 0.16212838,1.79157627 Z" id="path-37"></path>
        <path d="M5.04194129,0.228579661 C5.04194129,0.228579661 1.9423218,0.0479898305 0.226371255,1.73001356 L5.04194129,0.228579661 Z" id="path-39"></path>
        <polygon id="path-41" points="12.5614441 49.5170881 17.8528611 49.5170881 2.50273837 0.192532203 0.416233861 1.55607797"></polygon>
        <polygon id="path-43" points="0.146567768 62.8105805 42.3667428 62.8105805 42.3667428 32.5859326 42.3667428 2.36128475 38.5215179 0.296267797 0.146567768 62.8105805"></polygon>
    </defs>
    <g id="Landingssiden---nærmeste-leder" stroke="none" stroke-width="1" fill="none" fill-rule="evenodd">
        <g id="Dine-sykmeldte" transform="translate(-688.000000, -253.000000)">
            <g id="sykmeldt-og-leder" transform="translate(688.000000, 253.000000)">
                <g id="Group-32" transform="translate(229.010962, 103.355932)">
                    <mask id="mask-2" fill="white">
                        <use xlink:href="#path-1"></use>
                    </mask>
                    <g id="Clip-31"></g>
                    <polygon id="Fill-30" fill="#50808B" mask="url(#mask-2)" points="-5.24084287 32.3920454 35.9042182 32.3920454 35.9042182 -5.28078685 -5.24084287 -5.28078685"></polygon>
                </g>
                <g id="Group-35" transform="translate(0.611449, 103.355932)">
                    <mask id="mask-4" fill="white">
                        <use xlink:href="#path-3"></use>
                    </mask>
                    <g id="Clip-34"></g>
                    <polygon id="Fill-33" fill="#50808B" mask="url(#mask-4)" points="-5.4193296 32.3920454 35.7257315 32.3920454 35.7257315 -5.28078685 -5.4193296 -5.28078685"></polygon>
                </g>
                <g id="Group-41" transform="translate(143.471376, 0.677966)">
                    <mask id="mask-6" fill="white">
                        <use xlink:href="#path-5"></use>
                    </mask>
                    <g id="Clip-40"></g>
                    <polygon id="Fill-39" fill="#37373A" mask="url(#mask-6)" points="-5.09546967 76.3413322 75.5945067 76.3413322 75.5945067 -5.47119322 -5.09546967 -5.47119322"></polygon>
                </g>
                <g id="Group-44" transform="translate(143.030451, 65.898305)">
                    <mask id="mask-8" fill="white">
                        <use xlink:href="#path-7"></use>
                    </mask>
                    <g id="Clip-43"></g>
                    <polygon id="Fill-42" fill="#0F5FA9" mask="url(#mask-8)" points="-5.09815932 69.1645632 79.4346168 69.1645632 79.4346168 -5.31472831 -5.09815932 -5.31472831"></polygon>
                </g>
                <g id="Group-47" transform="translate(165.517661, 67.661017)">
                    <mask id="mask-10" fill="white">
                        <use xlink:href="#path-9"></use>
                    </mask>
                    <g id="Clip-46"></g>
                    <polygon id="Fill-45" fill="#3C84C5" mask="url(#mask-10)" points="-5.42947089 24.3428878 20.5779716 24.3428878 20.5779716 -5.23740034 -5.42947089 -5.23740034"></polygon>
                </g>
                <g id="Group-50" transform="translate(146.557856, 33.288136)">
                    <mask id="mask-12" fill="white">
                        <use xlink:href="#path-11"></use>
                    </mask>
                    <g id="Clip-49"></g>
                    <polygon id="Fill-48" fill="#E5E4E1" mask="url(#mask-12)" points="-5.15631742 41.6716983 65.2206714 41.6716983 65.2206714 -5.37574237 -5.15631742 -5.37574237"></polygon>
                </g>
                <g id="Group-53" transform="translate(148.321559, 17.864407)">
                    <mask id="mask-14" fill="white">
                        <use xlink:href="#path-13"></use>
                    </mask>
                    <g id="Clip-52"></g>
                    <polygon id="Fill-51" fill="#E5E4E1" mask="url(#mask-14)" points="-5.09864434 56.7593661 63.0999069 56.7593661 63.0999069 -5.35485424 -5.09864434 -5.35485424"></polygon>
                </g>
                <g id="Group-56" transform="translate(149.644336, 33.728814)">
                    <mask id="mask-16" fill="white">
                        <use xlink:href="#path-15"></use>
                    </mask>
                    <g id="Clip-55"></g>
                    <polygon id="Fill-54" fill="#635E59" mask="url(#mask-16)" points="-5.40416175 10.7816271 8.71192463 10.7816271 8.71192463 -5.35126271 -5.40416175 -5.35126271"></polygon>
                </g>
                <g id="Group-59" transform="translate(168.163216, 35.050847)">
                    <mask id="mask-18" fill="white">
                        <use xlink:href="#path-17"></use>
                    </mask>
                    <g id="Clip-58"></g>
                    <polygon id="Fill-57" fill="#635E59" mask="url(#mask-18)" points="-5.31650572 12.970078 10.2659981 12.970078 10.2659981 -5.04049661 -5.31650572 -5.04049661"></polygon>
                </g>
                <path d="M162.410791,51.5658122 C162.410791,51.5658122 159.702596,53.943835 157.055801,52.968769 C154.711622,52.1064211 155.014238,49.6266237 155.014238,49.6266237" id="Stroke-60" stroke="#C4B19C" stroke-width="1.395"></path>
                <g id="Group-64" transform="translate(147.880633, 39.016949)">
                    <mask id="mask-20" fill="white">
                        <use xlink:href="#path-19"></use>
                    </mask>
                    <g id="Clip-63"></g>
                    <polygon id="Fill-62" fill="#E5E4E1" mask="url(#mask-20)" points="-5.35887868 6.36215593 11.1051944 6.36215593 11.1051944 -5.28891119 -5.35887868 -5.28891119"></polygon>
                </g>
                <path d="M148.003916,39.9073526 C150.505982,39.0110799 153.503636,39.2211951 153.503636,39.2211951" id="Stroke-65" stroke="#37373A" stroke-width="0.689" stroke-linecap="round"></path>
                <g id="Group-69" transform="translate(167.281364, 64.135593)">
                    <mask id="mask-22" fill="white">
                        <use xlink:href="#path-21"></use>
                    </mask>
                    <g id="Clip-68"></g>
                    <polygon id="Fill-67" fill="#E5E4E1" mask="url(#mask-22)" points="-5.40711596 24.4758271 13.4702096 24.4758271 13.4702096 -5.44699119 -5.40711596 -5.44699119"></polygon>
                </g>
                <g id="Group-72" transform="translate(173.895250, 65.016949)">
                    <mask id="mask-24" fill="white">
                        <use xlink:href="#path-23"></use>
                    </mask>
                    <g id="Clip-71"></g>
                    <polygon id="Fill-70" fill="#3C84C5" mask="url(#mask-24)" points="-5.38775932 21.0001119 25.1874353 21.0001119 25.1874353 -5.25335288 -5.38775932 -5.25335288"></polygon>
                </g>
                <g id="Group-75" transform="translate(49.554202, 39.016949)">
                    <mask id="mask-26" fill="white">
                        <use xlink:href="#path-25"></use>
                    </mask>
                    <g id="Clip-74"></g>
                    <polygon id="Fill-73" fill="#CBBBA0" mask="url(#mask-26)" points="-5.46853691 58.0420871 53.3729978 58.0420871 53.3729978 -5.09644508 -5.46853691 -5.09644508"></polygon>
                </g>
                <g id="Group-78" transform="translate(45.585871, 64.576271)">
                    <mask id="mask-28" fill="white">
                        <use xlink:href="#path-27"></use>
                    </mask>
                    <g id="Clip-77"></g>
                    <polygon id="Fill-76" fill="#8E9738" mask="url(#mask-28)" points="-5.44044994 70.4860502 80.3881627 70.4860502 80.3881627 -5.11058027 -5.44044994 -5.11058027"></polygon>
                </g>
                <g id="Group-81" transform="translate(49.113276, 1.559322)">
                    <mask id="mask-30" fill="white">
                        <use xlink:href="#path-29"></use>
                    </mask>
                    <g id="Clip-80"></g>
                    <polygon id="Fill-79" fill="#CBBBA0" mask="url(#mask-30)" points="-5.04273496 80.2487356 72.9478061 80.2487356 72.9478061 -5.40385763 -5.04273496 -5.40385763"></polygon>
                </g>
                <g id="Group-84" transform="translate(53.963459, 31.525424)">
                    <mask id="mask-32" fill="white">
                        <use xlink:href="#path-31"></use>
                    </mask>
                    <g id="Clip-83"></g>
                    <polygon id="Fill-82" fill="#EDEBE8" mask="url(#mask-32)" points="-5.09101632 53.6443898 64.174046 53.6443898 64.174046 -5.20321695 -5.09101632 -5.20321695"></polygon>
                </g>
                <g id="Group-87" transform="translate(87.032887, 35.050847)">
                    <mask id="mask-34" fill="white">
                        <use xlink:href="#path-33"></use>
                    </mask>
                    <g id="Clip-86"></g>
                    <polygon id="Fill-85" fill="#635E59" mask="url(#mask-34)" points="-5.41571401 10.9647729 10.0828905 10.9647729 10.0828905 -5.21135627 -5.41571401 -5.21135627"></polygon>
                </g>
                <g id="Group-90" transform="translate(106.433618, 33.728814)">
                    <mask id="mask-36" fill="white">
                        <use xlink:href="#path-35"></use>
                    </mask>
                    <g id="Clip-89"></g>
                    <polygon id="Fill-88" fill="#635E59" mask="url(#mask-36)" points="-5.13938587 10.5708508 8.9167258 10.5708508 8.9167258 -5.46399695 -5.13938587 -5.46399695"></polygon>
                </g>
                <path d="M111.55492,39.6808085 C109.100001,38.800951 106.159362,39.0077833 106.159362,39.0077833" id="Stroke-91" stroke="#CBBBA0" stroke-width="0.685" stroke-linecap="round"></path>
                <g id="Group-95" transform="translate(92.323995, 50.033898)">
                    <mask id="mask-38" fill="white">
                        <use xlink:href="#path-37"></use>
                    </mask>
                    <g id="Clip-94"></g>
                    <polygon id="Fill-93" fill="#FFFFFF" mask="url(#mask-38)" points="-5.32003313 10.7573017 19.6326401 10.7573017 19.6326401 -5.18269898 -5.32003313 -5.18269898"></polygon>
                </g>
                <path d="M92.4861235,51.8254817 C92.4861235,51.8254817 97.4398186,56.8058692 103.029446,54.8743412 C105.536994,54.0076159 106.474446,50.322939 106.474446,50.322939 C106.474446,50.322939 104.319951,50.8022643 102.350753,51.3001937 C100.382651,51.7959343 92.4861235,51.8254817 92.4861235,51.8254817 Z" id="Stroke-96" stroke="#C4B19C" stroke-width="1.481"></path>
                <g id="Group-100" transform="translate(86.591961, 39.457627)">
                    <mask id="mask-40" fill="white">
                        <use xlink:href="#path-39"></use>
                    </mask>
                    <g id="Clip-99"></g>
                    <polygon id="Fill-98" fill="#EDEBE8" mask="url(#mask-40)" points="-5.25579026 7.20177966 10.5241072 7.20177966 10.5241072 -5.24880949 -5.25579026 -5.24880949"></polygon>
                </g>
                <path d="M91.6338765,39.6862074 C91.6338765,39.6862074 88.5342537,39.5056396 86.8183323,41.1876559" id="Stroke-101" stroke="#CBBBA0" stroke-width="0.762" stroke-linecap="round"></path>
                <g id="Group-105" transform="translate(62.341048, 67.220339)">
                    <mask id="mask-42" fill="white">
                        <use xlink:href="#path-41"></use>
                    </mask>
                    <g id="Clip-104"></g>
                    <polygon id="Fill-103" fill="#FFFFFF" mask="url(#mask-42)" points="-5.06592765 54.9888366 23.3350359 54.9888366 23.3350359 -5.27920746 -5.06592765 -5.27920746"></polygon>
                </g>
                <g id="Group-108" transform="translate(62.341048, 66.779661)">
                    <mask id="mask-44" fill="white">
                        <use xlink:href="#path-43"></use>
                    </mask>
                    <g id="Clip-107"></g>
                    <polygon id="Fill-106" fill="#FFFFFF" mask="url(#mask-44)" points="-5.33586236 68.2827697 47.8489043 68.2827697 47.8489043 -5.17551505 -5.33586236 -5.17551505"></polygon>
                </g>
            </g>
        </g>
    </g>
</svg>