<?xml version="1.0" encoding="UTF-8"?>
<svg width="40px" height="40px" viewBox="0 0 40 40" version="1.1" xmlns="http://www.w3.org/2000/svg" xmlns:xlink="http://www.w3.org/1999/xlink">
    <!-- Generator: Sketch 47.1 (45422) - http://www.bohemiancoding.com/sketch -->
    <title>Group 10</title>
    <desc>Created with Sketch.</desc>
    <defs></defs>
    <g id="Prototype" stroke="none" stroke-width="1" fill="none" fill-rule="evenodd">
        <g id="Din-sykmeldt-_-tidslinjetekst---ekspandert" transform="translate(-224.000000, -1445.000000)">
            <g id="Group-10" transform="translate(224.000000, 1445.000000)">
                <circle id="Oval" fill="#87D5EE" cx="20" cy="20" r="20"></circle>
                <g id="icon/line/-email-2" transform="translate(8.000000, 13.000000)" fill="#3E3832">
                    <g id="email-2">
                        <path d="M21.0833333,0 L1.91666667,0 C0.859625,0 0,0.8409375 0,1.875 L0,13.125 C0,14.1590625 0.859625,15 1.91666667,15 L21.0833333,15 C22.140375,15 23,14.1590625 23,13.125 L23,1.875 C23,0.8409375 22.140375,0 21.0833333,0 Z M22.0416667,13.125 C22.0416667,13.6425 21.6123333,14.0625 21.0833333,14.0625 L1.91666667,14.0625 C1.38766667,14.0625 0.958333333,13.6425 0.958333333,13.125 L0.958333333,1.875 C0.958333333,1.3575 1.38766667,0.9375 1.91666667,0.9375 L21.0833333,0.9375 C21.6123333,0.9375 22.0416667,1.3575 22.0416667,1.875 L22.0416667,13.125 Z" id="Shape" fill-rule="nonzero"></path>
                        <path d="M20.0483333,3.9646875 C19.9045833,3.74625 19.6055833,3.6871875 19.386125,3.8259375 L11.5,8.81625 L3.613875,3.825 C3.395375,3.688125 3.096375,3.7453125 2.95166667,3.9646875 C2.808875,4.18125 2.87116667,4.471875 3.09445833,4.6125 L11.2402917,9.76875 C11.318875,9.819375 11.4099167,9.84375 11.5,9.84375 C11.5900833,9.84375 11.681125,9.819375 11.7597083,9.76875 L19.9055417,4.6125 C20.1288333,4.471875 20.191125,4.18125 20.0483333,3.9646875 Z" id="Shape" fill-rule="nonzero"></path>
                        <path d="M6.47066667,8.9671875 L3.1165,10.8421875 C2.8865,10.9715625 2.80695833,11.2575 2.93729167,11.4825 C3.02641667,11.6334375 3.188375,11.71875 3.35416667,11.71875 C3.435625,11.71875 3.51708333,11.6990625 3.59183333,11.6578125 L6.946,9.7828125 C7.176,9.6534375 7.25554167,9.3675 7.12520833,9.1425 C6.992,8.9175 6.69683333,8.8415625 6.47066667,8.9671875 Z" id="Shape" fill-rule="nonzero"></path>
                        <path d="M19.8835,10.8421875 L16.5293333,8.9671875 C16.3022083,8.840625 16.0070417,8.9165625 15.8747917,9.1425 C15.7435,9.3665625 15.8230417,9.6534375 16.054,9.7828125 L19.4081667,11.6578125 C19.4829167,11.6990625 19.564375,11.71875 19.6458333,11.71875 C19.811625,11.71875 19.9735833,11.6334375 20.0627083,11.4825 C20.1930417,11.2584375 20.1135,10.9715625 19.8835,10.8421875 Z" id="Shape" fill-rule="nonzero"></path>
                    </g>
                </g>
            </g>
        </g>
    </g>
</svg>