<?xml version="1.0" encoding="UTF-8"?>
<svg width="100px" height="100px" viewBox="0 0 100 100" version="1.1" xmlns="http://www.w3.org/2000/svg" xmlns:xlink="http://www.w3.org/1999/xlink">
    <!-- Generator: Sketch 46.2 (44496) - http://www.bohemiancoding.com/sketch -->
    <title>Group 2</title>
    <desc>Created with Sketch.</desc>
    <defs>
        <circle id="path-1" cx="50" cy="50" r="50"></circle>
    </defs>
    <g id="Arbeidsgiversidene" stroke="none" stroke-width="1" fill="none" fill-rule="evenodd">
        <g id="Manglende-innsending" transform="translate(-224.000000, -452.000000)">
            <g id="Group-2" transform="translate(224.000000, 452.000000)">
                <g id="Forstørrelsesglass">
                    <mask id="mask-2" fill="white">
                        <use xlink:href="#path-1"></use>
                    </mask>
                    <use id="Oval" fill="#FED8A6" xlink:href="#path-1"></use>
                </g>
                <g id="report-problem-triangle" transform="translate(27.777778, 27.777778)" fill-rule="nonzero" fill="#3E3832">
                    <path d="M21.2962963,30.1944444 C20.7851852,30.1944444 20.3703704,29.7796296 20.3703704,29.2685185 L20.3703704,15.0981481 C20.3703704,14.587037 20.7851852,14.1722222 21.2962963,14.1722222 C21.8074074,14.1722222 22.2222222,14.587037 22.2222222,15.0981481 L22.2222222,29.2666667 C22.2222222,29.7796296 21.8074074,30.1944444 21.2962963,30.1944444 Z" id="Shape"></path>
                    <path d="M41.7037037,42.5925926 C41.6944444,42.5944444 41.6814815,42.5944444 41.6666667,42.5925926 L0.925925926,42.5925926 C0.605555556,42.5925926 0.307407407,42.4259259 0.137037037,42.1537037 C-0.0314814815,41.8814815 -0.0462962963,41.5407407 0.0981481481,41.2537037 L20.4685185,0.512962963 C20.7833333,-0.114814815 21.8111111,-0.114814815 22.1259259,0.512962963 L42.3925926,41.05 C42.5407407,41.212963 42.6296296,41.4296296 42.6296296,41.6685185 C42.6296296,42.1777778 42.2148148,42.5925926 41.7037037,42.5925926 Z M2.42407407,40.7407407 L40.1703704,40.7407407 L21.2962963,2.9962963 L2.42407407,40.7407407 Z" id="Shape"></path>
                    <circle id="Oval" cx="21.2962963" cy="35.1851852" r="1.85185185"></circle>
                </g>
            </g>
        </g>
    </g>
</svg>